G75*
%MOIN*%
%OFA0B0*%
%FSLAX24Y24*%
%IPPOS*%
%LPD*%
%AMOC8*
5,1,8,0,0,1.08239X$1,22.5*
%
%ADD10C,0.0000*%
%ADD11C,0.0060*%
%ADD12C,0.0110*%
%ADD13C,0.0059*%
D10*
X000226Y000180D02*
X000226Y007267D01*
X012037Y007267D01*
X012037Y000180D01*
X000226Y000180D01*
X009675Y002857D02*
X009677Y002884D01*
X009683Y002911D01*
X009692Y002937D01*
X009705Y002961D01*
X009721Y002984D01*
X009740Y003003D01*
X009762Y003020D01*
X009786Y003034D01*
X009811Y003044D01*
X009838Y003051D01*
X009865Y003054D01*
X009893Y003053D01*
X009920Y003048D01*
X009946Y003040D01*
X009970Y003028D01*
X009993Y003012D01*
X010014Y002994D01*
X010031Y002973D01*
X010046Y002949D01*
X010057Y002924D01*
X010065Y002898D01*
X010069Y002871D01*
X010069Y002843D01*
X010065Y002816D01*
X010057Y002790D01*
X010046Y002765D01*
X010031Y002741D01*
X010014Y002720D01*
X009993Y002702D01*
X009971Y002686D01*
X009946Y002674D01*
X009920Y002666D01*
X009893Y002661D01*
X009865Y002660D01*
X009838Y002663D01*
X009811Y002670D01*
X009786Y002680D01*
X009762Y002694D01*
X009740Y002711D01*
X009721Y002730D01*
X009705Y002753D01*
X009692Y002777D01*
X009683Y002803D01*
X009677Y002830D01*
X009675Y002857D01*
X009675Y004589D02*
X009677Y004616D01*
X009683Y004643D01*
X009692Y004669D01*
X009705Y004693D01*
X009721Y004716D01*
X009740Y004735D01*
X009762Y004752D01*
X009786Y004766D01*
X009811Y004776D01*
X009838Y004783D01*
X009865Y004786D01*
X009893Y004785D01*
X009920Y004780D01*
X009946Y004772D01*
X009970Y004760D01*
X009993Y004744D01*
X010014Y004726D01*
X010031Y004705D01*
X010046Y004681D01*
X010057Y004656D01*
X010065Y004630D01*
X010069Y004603D01*
X010069Y004575D01*
X010065Y004548D01*
X010057Y004522D01*
X010046Y004497D01*
X010031Y004473D01*
X010014Y004452D01*
X009993Y004434D01*
X009971Y004418D01*
X009946Y004406D01*
X009920Y004398D01*
X009893Y004393D01*
X009865Y004392D01*
X009838Y004395D01*
X009811Y004402D01*
X009786Y004412D01*
X009762Y004426D01*
X009740Y004443D01*
X009721Y004462D01*
X009705Y004485D01*
X009692Y004509D01*
X009683Y004535D01*
X009677Y004562D01*
X009675Y004589D01*
X006349Y006519D02*
X006351Y006545D01*
X006357Y006571D01*
X006367Y006596D01*
X006380Y006619D01*
X006396Y006639D01*
X006416Y006657D01*
X006438Y006672D01*
X006461Y006684D01*
X006487Y006692D01*
X006513Y006696D01*
X006539Y006696D01*
X006565Y006692D01*
X006591Y006684D01*
X006615Y006672D01*
X006636Y006657D01*
X006656Y006639D01*
X006672Y006619D01*
X006685Y006596D01*
X006695Y006571D01*
X006701Y006545D01*
X006703Y006519D01*
X006701Y006493D01*
X006695Y006467D01*
X006685Y006442D01*
X006672Y006419D01*
X006656Y006399D01*
X006636Y006381D01*
X006614Y006366D01*
X006591Y006354D01*
X006565Y006346D01*
X006539Y006342D01*
X006513Y006342D01*
X006487Y006346D01*
X006461Y006354D01*
X006437Y006366D01*
X006416Y006381D01*
X006396Y006399D01*
X006380Y006419D01*
X006367Y006442D01*
X006357Y006467D01*
X006351Y006493D01*
X006349Y006519D01*
X005167Y006519D02*
X005169Y006545D01*
X005175Y006571D01*
X005185Y006596D01*
X005198Y006619D01*
X005214Y006639D01*
X005234Y006657D01*
X005256Y006672D01*
X005279Y006684D01*
X005305Y006692D01*
X005331Y006696D01*
X005357Y006696D01*
X005383Y006692D01*
X005409Y006684D01*
X005433Y006672D01*
X005454Y006657D01*
X005474Y006639D01*
X005490Y006619D01*
X005503Y006596D01*
X005513Y006571D01*
X005519Y006545D01*
X005521Y006519D01*
X005519Y006493D01*
X005513Y006467D01*
X005503Y006442D01*
X005490Y006419D01*
X005474Y006399D01*
X005454Y006381D01*
X005432Y006366D01*
X005409Y006354D01*
X005383Y006346D01*
X005357Y006342D01*
X005331Y006342D01*
X005305Y006346D01*
X005279Y006354D01*
X005255Y006366D01*
X005234Y006381D01*
X005214Y006399D01*
X005198Y006419D01*
X005185Y006442D01*
X005175Y006467D01*
X005169Y006493D01*
X005167Y006519D01*
D11*
X008558Y006504D02*
X008631Y006430D01*
X008778Y006430D01*
X008851Y006504D01*
X008851Y006651D01*
X008778Y006724D01*
X008631Y006724D01*
X008558Y006651D01*
X008558Y006504D01*
X009018Y006651D02*
X009092Y006577D01*
X009312Y006577D01*
X009312Y006430D02*
X009312Y006871D01*
X009092Y006871D01*
X009018Y006797D01*
X009018Y006651D01*
X009472Y006430D02*
X009619Y006430D01*
X009545Y006430D02*
X009545Y006724D01*
X009619Y006724D01*
X009545Y006871D02*
X009545Y006944D01*
X010079Y006871D02*
X010079Y006430D01*
X009785Y006430D01*
X010246Y006430D02*
X010466Y006430D01*
X010539Y006504D01*
X010539Y006724D01*
X010706Y006651D02*
X010706Y006430D01*
X010393Y006284D02*
X010319Y006284D01*
X010246Y006357D01*
X010246Y006724D01*
X010706Y006651D02*
X010780Y006724D01*
X011000Y006724D01*
X011000Y006430D01*
X011160Y006430D02*
X011307Y006430D01*
X011233Y006430D02*
X011233Y006724D01*
X011307Y006724D01*
X011467Y006724D02*
X011614Y006724D01*
X011540Y006797D02*
X011540Y006504D01*
X011467Y006430D01*
X011233Y006871D02*
X011233Y006944D01*
D12*
X000998Y006269D02*
X000564Y006269D01*
X000781Y005462D02*
X000781Y005028D01*
X000998Y005245D02*
X000564Y005245D01*
D13*
X005155Y003450D02*
X005155Y003210D01*
X005473Y003177D01*
X005507Y003071D01*
X005558Y002971D01*
X005356Y002724D01*
X005526Y002554D01*
X005773Y002756D01*
X005873Y002704D01*
X006014Y003045D01*
X005959Y003075D01*
X005910Y003116D01*
X005871Y003166D01*
X005843Y003223D01*
X005828Y003284D01*
X005825Y003347D01*
X005835Y003409D01*
X005857Y003468D01*
X005891Y003521D01*
X005936Y003566D01*
X005988Y003602D01*
X006047Y003625D01*
X006109Y003636D01*
X006172Y003635D01*
X006233Y003620D01*
X006291Y003593D01*
X006341Y003555D01*
X006383Y003508D01*
X006414Y003453D01*
X006433Y003392D01*
X006439Y003330D01*
X006434Y003270D01*
X006416Y003212D01*
X006388Y003159D01*
X006349Y003112D01*
X006303Y003074D01*
X006250Y003045D01*
X006391Y002704D01*
X006490Y002756D01*
X006738Y002554D01*
X006907Y002724D01*
X006706Y002971D01*
X006757Y003071D01*
X006791Y003177D01*
X007109Y003210D01*
X007109Y003450D01*
X006791Y003482D01*
X006757Y003589D01*
X006706Y003688D01*
X006907Y003936D01*
X006738Y004105D01*
X006490Y003903D01*
X006391Y003955D01*
X006284Y003989D01*
X006252Y004307D01*
X006012Y004307D01*
X005980Y003989D01*
X005873Y003955D01*
X005773Y003903D01*
X005526Y004105D01*
X005356Y003936D01*
X005558Y003688D01*
X005507Y003589D01*
X005473Y003482D01*
X005155Y003450D01*
X005155Y003403D02*
X005834Y003403D01*
X005825Y003346D02*
X005155Y003346D01*
X005155Y003288D02*
X005828Y003288D01*
X005841Y003230D02*
X005155Y003230D01*
X005474Y003173D02*
X005868Y003173D01*
X005911Y003115D02*
X005492Y003115D01*
X005513Y003058D02*
X005991Y003058D01*
X005995Y003000D02*
X005543Y003000D01*
X005535Y002943D02*
X005972Y002943D01*
X005948Y002885D02*
X005488Y002885D01*
X005441Y002828D02*
X005924Y002828D01*
X005900Y002770D02*
X005394Y002770D01*
X005367Y002712D02*
X005720Y002712D01*
X005650Y002655D02*
X005425Y002655D01*
X005483Y002597D02*
X005579Y002597D01*
X005857Y002712D02*
X005876Y002712D01*
X006316Y002885D02*
X006776Y002885D01*
X006823Y002828D02*
X006340Y002828D01*
X006364Y002770D02*
X006870Y002770D01*
X006896Y002712D02*
X006544Y002712D01*
X006614Y002655D02*
X006839Y002655D01*
X006781Y002597D02*
X006685Y002597D01*
X006406Y002712D02*
X006388Y002712D01*
X006292Y002943D02*
X006729Y002943D01*
X006721Y003000D02*
X006268Y003000D01*
X006273Y003058D02*
X006750Y003058D01*
X006771Y003115D02*
X006352Y003115D01*
X006395Y003173D02*
X006790Y003173D01*
X007109Y003230D02*
X006422Y003230D01*
X006435Y003288D02*
X007109Y003288D01*
X007109Y003346D02*
X006438Y003346D01*
X006430Y003403D02*
X007109Y003403D01*
X007000Y003461D02*
X006409Y003461D01*
X006373Y003518D02*
X006780Y003518D01*
X006761Y003576D02*
X006314Y003576D01*
X006177Y003633D02*
X006734Y003633D01*
X006708Y003691D02*
X005556Y003691D01*
X005530Y003633D02*
X006092Y003633D01*
X005950Y003576D02*
X005503Y003576D01*
X005484Y003518D02*
X005889Y003518D01*
X005854Y003461D02*
X005264Y003461D01*
X005509Y003748D02*
X006755Y003748D01*
X006802Y003806D02*
X005462Y003806D01*
X005415Y003864D02*
X006849Y003864D01*
X006896Y003921D02*
X006512Y003921D01*
X006456Y003921D02*
X005808Y003921D01*
X005752Y003921D02*
X005368Y003921D01*
X005399Y003979D02*
X005681Y003979D01*
X005610Y004036D02*
X005457Y004036D01*
X005514Y004094D02*
X005540Y004094D01*
X005948Y003979D02*
X006316Y003979D01*
X006279Y004036D02*
X005984Y004036D01*
X005990Y004094D02*
X006273Y004094D01*
X006268Y004151D02*
X005996Y004151D01*
X006002Y004209D02*
X006262Y004209D01*
X006256Y004266D02*
X006008Y004266D01*
X006583Y003979D02*
X006864Y003979D01*
X006807Y004036D02*
X006653Y004036D01*
X006724Y004094D02*
X006749Y004094D01*
M02*
