G75*
%MOIN*%
%OFA0B0*%
%FSLAX24Y24*%
%IPPOS*%
%LPD*%
%AMOC8*
5,1,8,0,0,1.08239X$1,22.5*
%
%ADD10C,0.0000*%
%ADD11C,0.0060*%
%ADD12C,0.0059*%
D10*
X000180Y000180D02*
X000180Y007267D01*
X011991Y007267D01*
X011991Y000180D01*
X000180Y000180D01*
X009629Y002857D02*
X009631Y002884D01*
X009637Y002911D01*
X009646Y002937D01*
X009659Y002961D01*
X009675Y002984D01*
X009694Y003003D01*
X009716Y003020D01*
X009740Y003034D01*
X009765Y003044D01*
X009792Y003051D01*
X009819Y003054D01*
X009847Y003053D01*
X009874Y003048D01*
X009900Y003040D01*
X009924Y003028D01*
X009947Y003012D01*
X009968Y002994D01*
X009985Y002973D01*
X010000Y002949D01*
X010011Y002924D01*
X010019Y002898D01*
X010023Y002871D01*
X010023Y002843D01*
X010019Y002816D01*
X010011Y002790D01*
X010000Y002765D01*
X009985Y002741D01*
X009968Y002720D01*
X009947Y002702D01*
X009925Y002686D01*
X009900Y002674D01*
X009874Y002666D01*
X009847Y002661D01*
X009819Y002660D01*
X009792Y002663D01*
X009765Y002670D01*
X009740Y002680D01*
X009716Y002694D01*
X009694Y002711D01*
X009675Y002730D01*
X009659Y002753D01*
X009646Y002777D01*
X009637Y002803D01*
X009631Y002830D01*
X009629Y002857D01*
X009629Y004589D02*
X009631Y004616D01*
X009637Y004643D01*
X009646Y004669D01*
X009659Y004693D01*
X009675Y004716D01*
X009694Y004735D01*
X009716Y004752D01*
X009740Y004766D01*
X009765Y004776D01*
X009792Y004783D01*
X009819Y004786D01*
X009847Y004785D01*
X009874Y004780D01*
X009900Y004772D01*
X009924Y004760D01*
X009947Y004744D01*
X009968Y004726D01*
X009985Y004705D01*
X010000Y004681D01*
X010011Y004656D01*
X010019Y004630D01*
X010023Y004603D01*
X010023Y004575D01*
X010019Y004548D01*
X010011Y004522D01*
X010000Y004497D01*
X009985Y004473D01*
X009968Y004452D01*
X009947Y004434D01*
X009925Y004418D01*
X009900Y004406D01*
X009874Y004398D01*
X009847Y004393D01*
X009819Y004392D01*
X009792Y004395D01*
X009765Y004402D01*
X009740Y004412D01*
X009716Y004426D01*
X009694Y004443D01*
X009675Y004462D01*
X009659Y004485D01*
X009646Y004509D01*
X009637Y004535D01*
X009631Y004562D01*
X009629Y004589D01*
X006302Y006519D02*
X006304Y006545D01*
X006310Y006571D01*
X006320Y006596D01*
X006333Y006619D01*
X006349Y006639D01*
X006369Y006657D01*
X006391Y006672D01*
X006414Y006684D01*
X006440Y006692D01*
X006466Y006696D01*
X006492Y006696D01*
X006518Y006692D01*
X006544Y006684D01*
X006568Y006672D01*
X006589Y006657D01*
X006609Y006639D01*
X006625Y006619D01*
X006638Y006596D01*
X006648Y006571D01*
X006654Y006545D01*
X006656Y006519D01*
X006654Y006493D01*
X006648Y006467D01*
X006638Y006442D01*
X006625Y006419D01*
X006609Y006399D01*
X006589Y006381D01*
X006567Y006366D01*
X006544Y006354D01*
X006518Y006346D01*
X006492Y006342D01*
X006466Y006342D01*
X006440Y006346D01*
X006414Y006354D01*
X006390Y006366D01*
X006369Y006381D01*
X006349Y006399D01*
X006333Y006419D01*
X006320Y006442D01*
X006310Y006467D01*
X006304Y006493D01*
X006302Y006519D01*
X005121Y006519D02*
X005123Y006545D01*
X005129Y006571D01*
X005139Y006596D01*
X005152Y006619D01*
X005168Y006639D01*
X005188Y006657D01*
X005210Y006672D01*
X005233Y006684D01*
X005259Y006692D01*
X005285Y006696D01*
X005311Y006696D01*
X005337Y006692D01*
X005363Y006684D01*
X005387Y006672D01*
X005408Y006657D01*
X005428Y006639D01*
X005444Y006619D01*
X005457Y006596D01*
X005467Y006571D01*
X005473Y006545D01*
X005475Y006519D01*
X005473Y006493D01*
X005467Y006467D01*
X005457Y006442D01*
X005444Y006419D01*
X005428Y006399D01*
X005408Y006381D01*
X005386Y006366D01*
X005363Y006354D01*
X005337Y006346D01*
X005311Y006342D01*
X005285Y006342D01*
X005259Y006346D01*
X005233Y006354D01*
X005209Y006366D01*
X005188Y006381D01*
X005168Y006399D01*
X005152Y006419D01*
X005139Y006442D01*
X005129Y006467D01*
X005123Y006493D01*
X005121Y006519D01*
D11*
X008511Y006504D02*
X008511Y006651D01*
X008585Y006724D01*
X008732Y006724D01*
X008805Y006651D01*
X008805Y006504D01*
X008732Y006430D01*
X008585Y006430D01*
X008511Y006504D01*
X008972Y006651D02*
X008972Y006797D01*
X009045Y006871D01*
X009265Y006871D01*
X009265Y006430D01*
X009425Y006430D02*
X009572Y006430D01*
X009499Y006430D02*
X009499Y006724D01*
X009572Y006724D01*
X009499Y006871D02*
X009499Y006944D01*
X010033Y006871D02*
X010033Y006430D01*
X009739Y006430D01*
X010199Y006430D02*
X010420Y006430D01*
X010493Y006504D01*
X010493Y006724D01*
X010660Y006651D02*
X010660Y006430D01*
X010953Y006430D02*
X010953Y006724D01*
X010733Y006724D01*
X010660Y006651D01*
X010199Y006724D02*
X010199Y006357D01*
X010273Y006284D01*
X010346Y006284D01*
X011114Y006430D02*
X011260Y006430D01*
X011187Y006430D02*
X011187Y006724D01*
X011260Y006724D01*
X011421Y006724D02*
X011567Y006724D01*
X011494Y006797D02*
X011494Y006504D01*
X011421Y006430D01*
X011187Y006871D02*
X011187Y006944D01*
X009265Y006577D02*
X009045Y006577D01*
X008972Y006651D01*
D12*
X006205Y004307D02*
X005966Y004307D01*
X005933Y003989D01*
X005827Y003955D01*
X005727Y003903D01*
X005480Y004105D01*
X005310Y003936D01*
X005512Y003688D01*
X005460Y003589D01*
X005426Y003482D01*
X005109Y003450D01*
X005109Y003210D01*
X005426Y003177D01*
X005460Y003071D01*
X005512Y002971D01*
X005310Y002724D01*
X005480Y002554D01*
X005727Y002756D01*
X005827Y002704D01*
X005968Y003045D01*
X005912Y003075D01*
X005864Y003116D01*
X005825Y003166D01*
X005797Y003223D01*
X005781Y003284D01*
X005778Y003347D01*
X005788Y003409D01*
X005811Y003468D01*
X005845Y003521D01*
X005889Y003566D01*
X005942Y003602D01*
X006000Y003625D01*
X006063Y003636D01*
X006126Y003635D01*
X006187Y003620D01*
X006244Y003593D01*
X006295Y003555D01*
X006336Y003508D01*
X006367Y003453D01*
X006387Y003392D01*
X006393Y003330D01*
X006387Y003270D01*
X006370Y003212D01*
X006341Y003159D01*
X006303Y003112D01*
X006256Y003074D01*
X006203Y003045D01*
X006344Y002704D01*
X006444Y002756D01*
X006691Y002554D01*
X006861Y002724D01*
X006659Y002971D01*
X006711Y003071D01*
X006745Y003177D01*
X007062Y003210D01*
X007062Y003450D01*
X006745Y003482D01*
X006711Y003589D01*
X006659Y003688D01*
X006861Y003936D01*
X006691Y004105D01*
X006444Y003903D01*
X006344Y003955D01*
X006238Y003989D01*
X006205Y004307D01*
X006210Y004266D02*
X005961Y004266D01*
X005956Y004209D02*
X006215Y004209D01*
X006221Y004151D02*
X005950Y004151D01*
X005944Y004094D02*
X006227Y004094D01*
X006233Y004036D02*
X005938Y004036D01*
X005901Y003979D02*
X006270Y003979D01*
X006410Y003921D02*
X005761Y003921D01*
X005705Y003921D02*
X005322Y003921D01*
X005353Y003979D02*
X005635Y003979D01*
X005564Y004036D02*
X005411Y004036D01*
X005468Y004094D02*
X005494Y004094D01*
X005369Y003864D02*
X006802Y003864D01*
X006849Y003921D02*
X006466Y003921D01*
X006536Y003979D02*
X006818Y003979D01*
X006760Y004036D02*
X006607Y004036D01*
X006677Y004094D02*
X006703Y004094D01*
X006755Y003806D02*
X005416Y003806D01*
X005463Y003748D02*
X006708Y003748D01*
X006662Y003691D02*
X005509Y003691D01*
X005483Y003633D02*
X006046Y003633D01*
X006131Y003633D02*
X006688Y003633D01*
X006715Y003576D02*
X006267Y003576D01*
X006327Y003518D02*
X006733Y003518D01*
X006953Y003461D02*
X006363Y003461D01*
X006383Y003403D02*
X007062Y003403D01*
X007062Y003346D02*
X006391Y003346D01*
X006389Y003288D02*
X007062Y003288D01*
X007062Y003230D02*
X006375Y003230D01*
X006349Y003173D02*
X006743Y003173D01*
X006725Y003115D02*
X006306Y003115D01*
X006226Y003058D02*
X006704Y003058D01*
X006674Y003000D02*
X006222Y003000D01*
X006246Y002943D02*
X006682Y002943D01*
X006729Y002885D02*
X006270Y002885D01*
X006293Y002828D02*
X006776Y002828D01*
X006823Y002770D02*
X006317Y002770D01*
X006341Y002712D02*
X006360Y002712D01*
X006497Y002712D02*
X006850Y002712D01*
X006792Y002655D02*
X006568Y002655D01*
X006638Y002597D02*
X006735Y002597D01*
X005925Y002943D02*
X005489Y002943D01*
X005497Y003000D02*
X005949Y003000D01*
X005945Y003058D02*
X005467Y003058D01*
X005446Y003115D02*
X005865Y003115D01*
X005822Y003173D02*
X005428Y003173D01*
X005109Y003230D02*
X005795Y003230D01*
X005781Y003288D02*
X005109Y003288D01*
X005109Y003346D02*
X005778Y003346D01*
X005787Y003403D02*
X005109Y003403D01*
X005218Y003461D02*
X005808Y003461D01*
X005843Y003518D02*
X005438Y003518D01*
X005456Y003576D02*
X005903Y003576D01*
X005901Y002885D02*
X005442Y002885D01*
X005395Y002828D02*
X005878Y002828D01*
X005854Y002770D02*
X005348Y002770D01*
X005321Y002712D02*
X005674Y002712D01*
X005603Y002655D02*
X005379Y002655D01*
X005436Y002597D02*
X005533Y002597D01*
X005811Y002712D02*
X005830Y002712D01*
M02*
