G75*
%MOIN*%
%OFA0B0*%
%FSLAX24Y24*%
%IPPOS*%
%LPD*%
%AMOC8*
5,1,8,0,0,1.08239X$1,22.5*
%
%ADD10C,0.0000*%
%ADD11C,0.0060*%
%ADD12C,0.0110*%
%ADD13C,0.0050*%
%ADD14C,0.0030*%
%ADD15R,0.0079X0.0079*%
%ADD16C,0.0080*%
D10*
X000226Y000180D02*
X000226Y007267D01*
X012037Y007267D01*
X012037Y000180D01*
X000226Y000180D01*
X009675Y002857D02*
X009677Y002884D01*
X009683Y002911D01*
X009692Y002937D01*
X009705Y002961D01*
X009721Y002984D01*
X009740Y003003D01*
X009762Y003020D01*
X009786Y003034D01*
X009811Y003044D01*
X009838Y003051D01*
X009865Y003054D01*
X009893Y003053D01*
X009920Y003048D01*
X009946Y003040D01*
X009970Y003028D01*
X009993Y003012D01*
X010014Y002994D01*
X010031Y002973D01*
X010046Y002949D01*
X010057Y002924D01*
X010065Y002898D01*
X010069Y002871D01*
X010069Y002843D01*
X010065Y002816D01*
X010057Y002790D01*
X010046Y002765D01*
X010031Y002741D01*
X010014Y002720D01*
X009993Y002702D01*
X009971Y002686D01*
X009946Y002674D01*
X009920Y002666D01*
X009893Y002661D01*
X009865Y002660D01*
X009838Y002663D01*
X009811Y002670D01*
X009786Y002680D01*
X009762Y002694D01*
X009740Y002711D01*
X009721Y002730D01*
X009705Y002753D01*
X009692Y002777D01*
X009683Y002803D01*
X009677Y002830D01*
X009675Y002857D01*
X009675Y004589D02*
X009677Y004616D01*
X009683Y004643D01*
X009692Y004669D01*
X009705Y004693D01*
X009721Y004716D01*
X009740Y004735D01*
X009762Y004752D01*
X009786Y004766D01*
X009811Y004776D01*
X009838Y004783D01*
X009865Y004786D01*
X009893Y004785D01*
X009920Y004780D01*
X009946Y004772D01*
X009970Y004760D01*
X009993Y004744D01*
X010014Y004726D01*
X010031Y004705D01*
X010046Y004681D01*
X010057Y004656D01*
X010065Y004630D01*
X010069Y004603D01*
X010069Y004575D01*
X010065Y004548D01*
X010057Y004522D01*
X010046Y004497D01*
X010031Y004473D01*
X010014Y004452D01*
X009993Y004434D01*
X009971Y004418D01*
X009946Y004406D01*
X009920Y004398D01*
X009893Y004393D01*
X009865Y004392D01*
X009838Y004395D01*
X009811Y004402D01*
X009786Y004412D01*
X009762Y004426D01*
X009740Y004443D01*
X009721Y004462D01*
X009705Y004485D01*
X009692Y004509D01*
X009683Y004535D01*
X009677Y004562D01*
X009675Y004589D01*
X006349Y006519D02*
X006351Y006545D01*
X006357Y006571D01*
X006367Y006596D01*
X006380Y006619D01*
X006396Y006639D01*
X006416Y006657D01*
X006438Y006672D01*
X006461Y006684D01*
X006487Y006692D01*
X006513Y006696D01*
X006539Y006696D01*
X006565Y006692D01*
X006591Y006684D01*
X006615Y006672D01*
X006636Y006657D01*
X006656Y006639D01*
X006672Y006619D01*
X006685Y006596D01*
X006695Y006571D01*
X006701Y006545D01*
X006703Y006519D01*
X006701Y006493D01*
X006695Y006467D01*
X006685Y006442D01*
X006672Y006419D01*
X006656Y006399D01*
X006636Y006381D01*
X006614Y006366D01*
X006591Y006354D01*
X006565Y006346D01*
X006539Y006342D01*
X006513Y006342D01*
X006487Y006346D01*
X006461Y006354D01*
X006437Y006366D01*
X006416Y006381D01*
X006396Y006399D01*
X006380Y006419D01*
X006367Y006442D01*
X006357Y006467D01*
X006351Y006493D01*
X006349Y006519D01*
X005167Y006519D02*
X005169Y006545D01*
X005175Y006571D01*
X005185Y006596D01*
X005198Y006619D01*
X005214Y006639D01*
X005234Y006657D01*
X005256Y006672D01*
X005279Y006684D01*
X005305Y006692D01*
X005331Y006696D01*
X005357Y006696D01*
X005383Y006692D01*
X005409Y006684D01*
X005433Y006672D01*
X005454Y006657D01*
X005474Y006639D01*
X005490Y006619D01*
X005503Y006596D01*
X005513Y006571D01*
X005519Y006545D01*
X005521Y006519D01*
X005519Y006493D01*
X005513Y006467D01*
X005503Y006442D01*
X005490Y006419D01*
X005474Y006399D01*
X005454Y006381D01*
X005432Y006366D01*
X005409Y006354D01*
X005383Y006346D01*
X005357Y006342D01*
X005331Y006342D01*
X005305Y006346D01*
X005279Y006354D01*
X005255Y006366D01*
X005234Y006381D01*
X005214Y006399D01*
X005198Y006419D01*
X005185Y006442D01*
X005175Y006467D01*
X005169Y006493D01*
X005167Y006519D01*
D11*
X004055Y006476D02*
X003998Y006419D01*
X004055Y006476D02*
X004055Y006589D01*
X003998Y006646D01*
X003941Y006646D01*
X003884Y006589D01*
X003884Y006476D01*
X003828Y006419D01*
X003771Y006419D01*
X003714Y006476D01*
X003714Y006589D01*
X003771Y006646D01*
X003714Y006787D02*
X003714Y007014D01*
X003714Y006901D02*
X004055Y006901D01*
X004055Y006278D02*
X003828Y006278D01*
X003714Y006164D01*
X003828Y006051D01*
X004055Y006051D01*
X003884Y006051D02*
X003884Y006278D01*
X003714Y005909D02*
X003714Y005682D01*
X004055Y005682D01*
X003884Y005682D02*
X003884Y005796D01*
X003059Y005739D02*
X002719Y005739D01*
X002719Y005852D02*
X002719Y005625D01*
X002832Y005484D02*
X003059Y005484D01*
X002889Y005484D02*
X002889Y005257D01*
X002832Y005257D02*
X002719Y005370D01*
X002832Y005484D01*
X002832Y005257D02*
X003059Y005257D01*
X003002Y005116D02*
X003059Y005059D01*
X003059Y004889D01*
X002719Y004889D01*
X002719Y005059D01*
X002775Y005116D01*
X002832Y005116D01*
X002889Y005059D01*
X002889Y004889D01*
X002889Y005059D02*
X002946Y005116D01*
X003002Y005116D01*
X002719Y005994D02*
X002719Y006220D01*
X002719Y006107D02*
X003059Y006107D01*
X003059Y006362D02*
X002832Y006589D01*
X002775Y006589D01*
X002719Y006532D01*
X002719Y006419D01*
X002775Y006362D01*
X003059Y006362D02*
X003059Y006589D01*
X007809Y006550D02*
X007809Y006436D01*
X007866Y006380D01*
X008092Y006380D01*
X008149Y006436D01*
X008149Y006550D01*
X008092Y006607D01*
X007866Y006607D01*
X007809Y006550D01*
X007809Y006748D02*
X008149Y006748D01*
X008036Y006861D01*
X008149Y006975D01*
X007809Y006975D01*
X008149Y006238D02*
X008149Y006011D01*
X007809Y006011D01*
X007866Y005870D02*
X007809Y005813D01*
X007809Y005700D01*
X007866Y005643D01*
X007922Y005643D01*
X007979Y005700D01*
X007979Y005813D01*
X008036Y005870D01*
X008092Y005870D01*
X008149Y005813D01*
X008149Y005700D01*
X008092Y005643D01*
X010455Y006284D02*
X010511Y006227D01*
X010625Y006227D01*
X010681Y006284D01*
X010681Y006567D01*
X010823Y006511D02*
X010823Y006454D01*
X010880Y006397D01*
X010993Y006397D01*
X011050Y006340D01*
X011050Y006284D01*
X010993Y006227D01*
X010880Y006227D01*
X010823Y006284D01*
X010823Y006511D02*
X010880Y006567D01*
X010993Y006567D01*
X011050Y006511D01*
X011191Y006567D02*
X011361Y006567D01*
X011418Y006511D01*
X011418Y006454D01*
X011361Y006397D01*
X011191Y006397D01*
X011361Y006397D02*
X011418Y006340D01*
X011418Y006284D01*
X011361Y006227D01*
X011191Y006227D01*
X011191Y006567D01*
X010455Y006567D02*
X010455Y006284D01*
X005103Y001916D02*
X005046Y001973D01*
X004933Y001973D01*
X004876Y001916D01*
X004876Y001690D01*
X004933Y001633D01*
X005046Y001633D01*
X005103Y001690D01*
X005103Y001803D01*
X004990Y001803D01*
X004735Y001803D02*
X004508Y001803D01*
X004366Y001916D02*
X004310Y001973D01*
X004196Y001973D01*
X004140Y001916D01*
X004140Y001690D01*
X004196Y001633D01*
X004310Y001633D01*
X004366Y001690D01*
X004508Y001633D02*
X004508Y001973D01*
X004735Y001973D02*
X004735Y001633D01*
X004678Y001146D02*
X004565Y001146D01*
X004508Y001090D01*
X004508Y000863D01*
X004565Y000806D01*
X004678Y000806D01*
X004735Y000863D01*
X004735Y001090D01*
X004678Y001146D01*
X004876Y001146D02*
X004876Y000806D01*
X004990Y000919D01*
X005103Y000806D01*
X005103Y001146D01*
X004366Y001090D02*
X004366Y000976D01*
X004310Y000919D01*
X004140Y000919D01*
X004140Y000806D02*
X004140Y001146D01*
X004310Y001146D01*
X004366Y001090D01*
X002144Y000473D02*
X001918Y000473D01*
X002031Y000473D02*
X002031Y000813D01*
X001918Y000700D01*
X001776Y000813D02*
X001549Y000813D01*
X001663Y000813D02*
X001663Y000473D01*
X001294Y000473D02*
X001294Y000813D01*
X001181Y000813D02*
X001408Y000813D01*
X001040Y000700D02*
X001040Y000473D01*
X001040Y000643D02*
X000813Y000643D01*
X000813Y000700D02*
X000926Y000813D01*
X001040Y000700D01*
X000813Y000700D02*
X000813Y000473D01*
X000671Y000530D02*
X000614Y000473D01*
X000444Y000473D01*
X000444Y000813D01*
X000614Y000813D01*
X000671Y000757D01*
X000671Y000700D01*
X000614Y000643D01*
X000444Y000643D01*
X000614Y000643D02*
X000671Y000587D01*
X000671Y000530D01*
X008682Y000897D02*
X008828Y000897D01*
X008755Y000971D02*
X008755Y000677D01*
X008828Y000604D01*
X008988Y000604D02*
X009135Y000604D01*
X009062Y000604D02*
X009062Y000897D01*
X008988Y000897D01*
X009062Y001044D02*
X009062Y001117D01*
X009295Y000897D02*
X009516Y000897D01*
X009589Y000824D01*
X009589Y000604D01*
X009756Y000677D02*
X009829Y000604D01*
X010049Y000604D01*
X010049Y000530D02*
X009976Y000457D01*
X009903Y000457D01*
X010049Y000530D02*
X010049Y000897D01*
X010216Y001044D02*
X010216Y000604D01*
X010510Y000604D01*
X010677Y000604D02*
X010823Y000604D01*
X010750Y000604D02*
X010750Y000897D01*
X010677Y000897D01*
X010750Y001044D02*
X010750Y001117D01*
X010984Y001044D02*
X011204Y001044D01*
X011277Y000971D01*
X011277Y000824D01*
X011204Y000750D01*
X010984Y000750D01*
X010984Y000604D02*
X010984Y001044D01*
X011444Y000824D02*
X011444Y000677D01*
X011517Y000604D01*
X011664Y000604D01*
X011737Y000677D01*
X011737Y000824D01*
X011664Y000897D01*
X011517Y000897D01*
X011444Y000824D01*
X009756Y000897D02*
X009756Y000677D01*
X009295Y000604D02*
X009295Y000897D01*
D12*
X004062Y003867D02*
X003628Y003867D01*
X003845Y004084D02*
X003845Y003651D01*
X000991Y005245D02*
X000557Y005245D01*
X000774Y005462D02*
X000774Y005028D01*
X000557Y006269D02*
X000991Y006269D01*
X003549Y001545D02*
X003983Y001545D01*
D13*
X005915Y002660D02*
X006506Y002660D01*
X006506Y003605D01*
X005915Y003605D01*
X005915Y002660D01*
D14*
X004986Y002490D02*
X004986Y002442D01*
X004792Y002249D01*
X004986Y002249D01*
X004691Y002297D02*
X004643Y002249D01*
X004546Y002249D01*
X004498Y002297D01*
X004498Y002490D01*
X004546Y002539D01*
X004643Y002539D01*
X004691Y002490D01*
X004792Y002490D02*
X004841Y002539D01*
X004937Y002539D01*
X004986Y002490D01*
X005844Y003754D02*
X005940Y003754D01*
X005892Y003754D02*
X005892Y004044D01*
X005844Y004044D02*
X005940Y004044D01*
X006040Y003996D02*
X006040Y003802D01*
X006089Y003754D01*
X006185Y003754D01*
X006234Y003802D01*
X006335Y003754D02*
X006528Y003754D01*
X006432Y003754D02*
X006432Y004044D01*
X006335Y003948D01*
X006234Y003996D02*
X006185Y004044D01*
X006089Y004044D01*
X006040Y003996D01*
X007254Y003950D02*
X007302Y003902D01*
X007399Y003902D01*
X007447Y003950D01*
X007548Y003902D02*
X007742Y003902D01*
X007645Y003902D02*
X007645Y004192D01*
X007548Y004096D01*
X007447Y004144D02*
X007399Y004192D01*
X007302Y004192D01*
X007254Y004144D01*
X007254Y003950D01*
X007571Y004498D02*
X007571Y004643D01*
X007619Y004692D01*
X007716Y004692D01*
X007764Y004643D01*
X007764Y004498D01*
X007764Y004595D02*
X007861Y004692D01*
X007861Y004793D02*
X007667Y004986D01*
X007619Y004986D01*
X007571Y004938D01*
X007571Y004841D01*
X007619Y004793D01*
X007861Y004793D02*
X007861Y004986D01*
X007861Y004498D02*
X007571Y004498D01*
X006615Y005589D02*
X006421Y005589D01*
X006518Y005589D02*
X006518Y005879D01*
X006421Y005782D01*
X006320Y005879D02*
X006320Y005589D01*
X006223Y005685D01*
X006127Y005589D01*
X006127Y005879D01*
X006025Y005831D02*
X005977Y005879D01*
X005880Y005879D01*
X005832Y005831D01*
X005832Y005782D01*
X005880Y005734D01*
X005977Y005734D01*
X006025Y005685D01*
X006025Y005637D01*
X005977Y005589D01*
X005880Y005589D01*
X005832Y005637D01*
X004306Y004844D02*
X004306Y004553D01*
X004209Y004553D02*
X004403Y004553D01*
X004209Y004747D02*
X004306Y004844D01*
X004108Y004795D02*
X004108Y004698D01*
X004060Y004650D01*
X003915Y004650D01*
X004011Y004650D02*
X004108Y004553D01*
X003915Y004553D02*
X003915Y004844D01*
X004060Y004844D01*
X004108Y004795D01*
X007807Y001631D02*
X007855Y001679D01*
X007904Y001679D01*
X007952Y001631D01*
X008000Y001679D01*
X008049Y001679D01*
X008097Y001631D01*
X008097Y001534D01*
X008049Y001486D01*
X008097Y001385D02*
X008000Y001288D01*
X008000Y001336D02*
X008000Y001191D01*
X008097Y001191D02*
X007807Y001191D01*
X007807Y001336D01*
X007855Y001385D01*
X007952Y001385D01*
X008000Y001336D01*
X007855Y001486D02*
X007807Y001534D01*
X007807Y001631D01*
X007952Y001631D02*
X007952Y001582D01*
D15*
X006053Y001007D03*
X005974Y001834D03*
D16*
X008455Y002463D02*
X008455Y002897D01*
X009439Y002188D02*
X010502Y002188D01*
X011646Y003315D02*
X011646Y003315D01*
X010502Y005259D02*
X009439Y005259D01*
X008455Y004983D02*
X008455Y004550D01*
X006604Y006007D02*
X005896Y006007D01*
X004596Y006322D02*
X004596Y006715D01*
X004793Y007030D02*
X007077Y007030D01*
X007274Y006715D02*
X007274Y006322D01*
X003376Y004196D02*
X003376Y003861D01*
X002392Y003861D01*
X002392Y003310D01*
X001801Y004196D02*
X003376Y004196D01*
X000423Y003507D02*
X000423Y001735D01*
X001801Y001046D02*
X003376Y001046D01*
X003376Y001381D01*
X002392Y001381D01*
X002392Y001932D01*
M02*
