G75*
%MOIN*%
%OFA0B0*%
%FSLAX24Y24*%
%IPPOS*%
%LPD*%
%AMOC8*
5,1,8,0,0,1.08239X$1,22.5*
%
%ADD10R,0.0236X0.0197*%
%ADD11R,0.0512X0.0630*%
%ADD12R,0.0630X0.0512*%
%ADD13R,0.0591X0.0512*%
%ADD14R,0.0472X0.0472*%
%ADD15R,0.1811X0.0394*%
%ADD16R,0.1339X0.0630*%
%ADD17R,0.0945X0.0787*%
%ADD18R,0.0909X0.0197*%
%ADD19R,0.1500X0.1000*%
%ADD20R,0.0394X0.0315*%
%ADD21R,0.0276X0.0591*%
%ADD22C,0.0594*%
%ADD23C,0.0160*%
%ADD24C,0.0320*%
%ADD25C,0.0100*%
%ADD26C,0.0120*%
D10*
X005672Y002759D03*
X005672Y003133D03*
X005672Y003507D03*
X006656Y003507D03*
X006656Y002759D03*
D11*
X006302Y004708D03*
X007050Y004708D03*
X005475Y004708D03*
X004727Y004708D03*
D12*
X007306Y001774D03*
X007306Y001026D03*
D13*
X007463Y002798D03*
X007463Y003467D03*
X004708Y003546D03*
X004708Y002877D03*
D14*
X005554Y001834D03*
X006381Y001834D03*
X006460Y001007D03*
X005633Y001007D03*
D15*
X003015Y002227D03*
X003015Y003015D03*
D16*
X000967Y003960D03*
X000967Y001282D03*
D17*
X008841Y001991D03*
X008841Y005456D03*
D18*
X008619Y004353D03*
X008619Y004038D03*
X008619Y003723D03*
X008619Y003408D03*
X008619Y003093D03*
D19*
X011007Y001991D03*
X011007Y005456D03*
D20*
X007326Y006086D03*
X007326Y006952D03*
X004452Y006952D03*
X004452Y006086D03*
D21*
X005003Y005830D03*
X005593Y005830D03*
X006774Y005830D03*
D22*
X002091Y006271D02*
X001497Y006271D01*
X001497Y005271D02*
X002091Y005271D01*
D23*
X000360Y000827D02*
X000360Y000360D01*
X011811Y000360D01*
X011811Y001351D01*
X010199Y001351D01*
X010117Y001433D01*
X010117Y002549D01*
X010199Y002631D01*
X011811Y002631D01*
X011811Y004816D01*
X010199Y004816D01*
X010117Y004898D01*
X010117Y006014D01*
X010199Y006096D01*
X011811Y006096D01*
X011811Y007087D01*
X007663Y007087D01*
X007663Y006736D01*
X007581Y006654D01*
X007071Y006654D01*
X006989Y006736D01*
X006989Y007087D01*
X004789Y007087D01*
X004789Y006736D01*
X004706Y006654D01*
X004197Y006654D01*
X004115Y006736D01*
X004115Y007087D01*
X000360Y007087D01*
X000360Y004414D01*
X001695Y004414D01*
X001777Y004332D01*
X001777Y003587D01*
X001695Y003505D01*
X000360Y003505D01*
X000360Y001737D01*
X001695Y001737D01*
X001777Y001655D01*
X001777Y000909D01*
X001695Y000827D01*
X000360Y000827D01*
X000360Y000814D02*
X005217Y000814D01*
X005217Y000747D02*
X005229Y000701D01*
X005252Y000660D01*
X005286Y000627D01*
X005327Y000603D01*
X005373Y000591D01*
X005595Y000591D01*
X005595Y000969D01*
X005671Y000969D01*
X005671Y001045D01*
X006049Y001045D01*
X006049Y001267D01*
X006037Y001312D01*
X006013Y001354D01*
X005979Y001387D01*
X005938Y001411D01*
X005893Y001423D01*
X005671Y001423D01*
X005671Y001045D01*
X005595Y001045D01*
X005595Y001423D01*
X005373Y001423D01*
X005327Y001411D01*
X005286Y001387D01*
X005252Y001354D01*
X005229Y001312D01*
X005217Y001267D01*
X005217Y001045D01*
X005595Y001045D01*
X005595Y000969D01*
X005217Y000969D01*
X005217Y000747D01*
X005257Y000656D02*
X000360Y000656D01*
X000360Y000497D02*
X011811Y000497D01*
X011811Y000656D02*
X007704Y000656D01*
X007679Y000631D02*
X007761Y000713D01*
X007761Y000914D01*
X007782Y000935D01*
X008117Y001270D01*
X008117Y002377D01*
X007988Y002506D01*
X007916Y002578D01*
X008415Y002578D01*
X008544Y002707D01*
X008692Y002855D01*
X009132Y002855D01*
X009214Y002937D01*
X009214Y003250D01*
X009213Y003251D01*
X009214Y003252D01*
X009214Y003565D01*
X009213Y003566D01*
X009214Y003567D01*
X009214Y003880D01*
X009213Y003881D01*
X009214Y003882D01*
X009214Y004140D01*
X009218Y004144D01*
X009241Y004185D01*
X009254Y004231D01*
X009254Y004353D01*
X008619Y004353D01*
X007985Y004353D01*
X007985Y004231D01*
X007997Y004185D01*
X008021Y004144D01*
X008025Y004140D01*
X008025Y003882D01*
X008026Y003881D01*
X008025Y003880D01*
X008025Y003567D01*
X008026Y003566D01*
X008025Y003565D01*
X008025Y003252D01*
X008026Y003251D01*
X008025Y003250D01*
X008025Y003018D01*
X007899Y003018D01*
X007899Y003097D01*
X007903Y003101D01*
X007926Y003142D01*
X007939Y003188D01*
X007939Y003419D01*
X007511Y003419D01*
X007511Y003515D01*
X007416Y003515D01*
X007416Y003903D01*
X007144Y003903D01*
X007099Y003891D01*
X007058Y003867D01*
X007024Y003834D01*
X007000Y003793D01*
X006988Y003747D01*
X006988Y003515D01*
X007416Y003515D01*
X007416Y003419D01*
X006988Y003419D01*
X006988Y003188D01*
X007000Y003142D01*
X007024Y003101D01*
X007028Y003097D01*
X007028Y002979D01*
X006851Y002979D01*
X006832Y002997D01*
X006480Y002997D01*
X006433Y002950D01*
X006433Y003158D01*
X006443Y003168D01*
X006443Y003306D01*
X006480Y003268D01*
X006832Y003268D01*
X006914Y003350D01*
X006988Y003350D01*
X006914Y003350D02*
X006914Y003663D01*
X006832Y003745D01*
X006729Y003745D01*
X006345Y004129D01*
X006345Y004253D01*
X006616Y004253D01*
X006676Y004313D01*
X006736Y004253D01*
X007364Y004253D01*
X007446Y004335D01*
X007446Y005081D01*
X007364Y005163D01*
X007270Y005163D01*
X007270Y005645D01*
X007141Y005774D01*
X007127Y005788D01*
X007581Y005788D01*
X007663Y005870D01*
X007663Y006301D01*
X007581Y006383D01*
X007071Y006383D01*
X006989Y006301D01*
X006989Y006246D01*
X006970Y006265D01*
X006731Y006265D01*
X006782Y006316D01*
X006836Y006448D01*
X006836Y006590D01*
X006782Y006721D01*
X006682Y006821D01*
X006550Y006876D01*
X006408Y006876D01*
X006277Y006821D01*
X006176Y006721D01*
X006122Y006590D01*
X006122Y006448D01*
X006176Y006316D01*
X006277Y006216D01*
X006408Y006161D01*
X006497Y006161D01*
X006497Y005476D01*
X006579Y005394D01*
X006830Y005394D01*
X006830Y005163D01*
X006736Y005163D01*
X006676Y005102D01*
X006616Y005163D01*
X005988Y005163D01*
X005906Y005081D01*
X005906Y004623D01*
X005905Y004622D01*
X005905Y004258D01*
X005795Y004258D01*
X005871Y004335D01*
X005871Y005081D01*
X005789Y005163D01*
X005161Y005163D01*
X005101Y005102D01*
X005041Y005163D01*
X004947Y005163D01*
X004947Y005394D01*
X005199Y005394D01*
X005281Y005476D01*
X005281Y005492D01*
X005288Y005465D01*
X005312Y005424D01*
X005345Y005390D01*
X005386Y005367D01*
X005432Y005354D01*
X005593Y005354D01*
X005593Y005830D01*
X005593Y006305D01*
X005590Y006305D01*
X005601Y006316D01*
X005655Y006448D01*
X005655Y006590D01*
X005601Y006721D01*
X005500Y006821D01*
X005369Y006876D01*
X005227Y006876D01*
X005096Y006821D01*
X004995Y006721D01*
X004941Y006590D01*
X004941Y006448D01*
X004995Y006316D01*
X005047Y006265D01*
X004807Y006265D01*
X004789Y006246D01*
X004789Y006301D01*
X004706Y006383D01*
X004197Y006383D01*
X004115Y006301D01*
X004115Y005870D01*
X004197Y005788D01*
X004650Y005788D01*
X004636Y005774D01*
X004507Y005645D01*
X004507Y005163D01*
X004413Y005163D01*
X004331Y005081D01*
X004331Y004335D01*
X004413Y004253D01*
X005041Y004253D01*
X005101Y004313D01*
X005161Y004253D01*
X005255Y004253D01*
X005255Y004164D01*
X005384Y004035D01*
X005601Y003818D01*
X006034Y003818D01*
X006398Y003454D01*
X006398Y003378D01*
X006070Y003707D01*
X005887Y003707D01*
X005848Y003745D01*
X005496Y003745D01*
X005414Y003663D01*
X005414Y003350D01*
X005416Y003348D01*
X005410Y003342D01*
X005386Y003301D01*
X005374Y003255D01*
X005374Y003133D01*
X005672Y003133D01*
X005672Y003133D01*
X005374Y003133D01*
X005374Y003011D01*
X005383Y002979D01*
X005143Y002979D01*
X005143Y003176D01*
X005147Y003180D01*
X005171Y003221D01*
X005183Y003267D01*
X005183Y003498D01*
X004756Y003498D01*
X004756Y003594D01*
X005183Y003594D01*
X005183Y003826D01*
X005171Y003872D01*
X005147Y003913D01*
X005113Y003946D01*
X005072Y003970D01*
X005027Y003982D01*
X004756Y003982D01*
X004756Y003594D01*
X004660Y003594D01*
X004660Y003982D01*
X004389Y003982D01*
X004343Y003970D01*
X004302Y003946D01*
X004268Y003913D01*
X004245Y003872D01*
X004232Y003826D01*
X004232Y003594D01*
X004660Y003594D01*
X004660Y003498D01*
X004232Y003498D01*
X004232Y003315D01*
X004015Y003315D01*
X003978Y003351D01*
X003102Y003351D01*
X002882Y003572D01*
X002882Y004649D01*
X002836Y004759D01*
X002494Y005101D01*
X002528Y005184D01*
X002528Y005357D01*
X002461Y005518D01*
X002338Y005641D01*
X002178Y005707D01*
X001410Y005707D01*
X001250Y005641D01*
X001127Y005518D01*
X001060Y005357D01*
X001060Y005184D01*
X001127Y005023D01*
X001250Y004900D01*
X001410Y004834D01*
X001913Y004834D01*
X002282Y004465D01*
X002282Y003388D01*
X002297Y003351D01*
X002051Y003351D01*
X001969Y003269D01*
X001969Y002760D01*
X002051Y002678D01*
X003978Y002678D01*
X004015Y002715D01*
X004272Y002715D01*
X004272Y002563D01*
X004354Y002481D01*
X005061Y002481D01*
X005119Y002539D01*
X005478Y002539D01*
X005496Y002520D01*
X005559Y002520D01*
X005475Y002437D01*
X005364Y002326D01*
X005364Y002210D01*
X005260Y002210D01*
X005178Y002128D01*
X005178Y001539D01*
X005260Y001457D01*
X005848Y001457D01*
X005930Y001539D01*
X005930Y002128D01*
X005848Y002210D01*
X005786Y002210D01*
X005849Y002273D01*
X006164Y002273D01*
X006276Y002385D01*
X006433Y002542D01*
X006433Y002568D01*
X006480Y002520D01*
X006832Y002520D01*
X006851Y002539D01*
X007028Y002539D01*
X007028Y002484D01*
X007110Y002402D01*
X007470Y002402D01*
X007677Y002195D01*
X007677Y002170D01*
X006933Y002170D01*
X006851Y002088D01*
X006851Y001964D01*
X006757Y001964D01*
X006757Y002128D01*
X006675Y002210D01*
X006087Y002210D01*
X006005Y002128D01*
X006005Y001539D01*
X006087Y001457D01*
X006675Y001457D01*
X006757Y001539D01*
X006757Y001584D01*
X006851Y001584D01*
X006851Y001461D01*
X006911Y001400D01*
X006851Y001340D01*
X006851Y001216D01*
X006836Y001216D01*
X006836Y001301D01*
X006754Y001383D01*
X006165Y001383D01*
X006083Y001301D01*
X006083Y000713D01*
X006165Y000631D01*
X006754Y000631D01*
X006836Y000713D01*
X006836Y000836D01*
X006851Y000836D01*
X006851Y000713D01*
X006933Y000631D01*
X007679Y000631D01*
X007761Y000814D02*
X011811Y000814D01*
X011811Y000973D02*
X007819Y000973D01*
X007978Y001131D02*
X011811Y001131D01*
X011811Y001290D02*
X008117Y001290D01*
X008117Y001448D02*
X010117Y001448D01*
X010117Y001607D02*
X009454Y001607D01*
X009454Y001539D02*
X009454Y002443D01*
X009372Y002525D01*
X008311Y002525D01*
X008229Y002443D01*
X008229Y001539D01*
X008311Y001457D01*
X009372Y001457D01*
X009454Y001539D01*
X009454Y001765D02*
X010117Y001765D01*
X010117Y001924D02*
X009454Y001924D01*
X009454Y002082D02*
X010117Y002082D01*
X010117Y002241D02*
X009454Y002241D01*
X009454Y002399D02*
X010117Y002399D01*
X010125Y002558D02*
X010059Y002558D01*
X010039Y002538D02*
X010145Y002644D01*
X010203Y002782D01*
X010203Y002932D01*
X010145Y003071D01*
X010039Y003177D01*
X009901Y003234D01*
X009751Y003234D01*
X009612Y003177D01*
X009506Y003071D01*
X009449Y002932D01*
X009449Y002782D01*
X009506Y002644D01*
X009612Y002538D01*
X009751Y002480D01*
X009901Y002480D01*
X010039Y002538D01*
X010175Y002716D02*
X011811Y002716D01*
X011811Y002875D02*
X010203Y002875D01*
X010161Y003033D02*
X011811Y003033D01*
X011811Y003192D02*
X010003Y003192D01*
X009648Y003192D02*
X009214Y003192D01*
X009214Y003350D02*
X011811Y003350D01*
X011811Y003509D02*
X009214Y003509D01*
X009214Y003667D02*
X011811Y003667D01*
X011811Y003826D02*
X009214Y003826D01*
X009214Y003984D02*
X011811Y003984D01*
X011811Y004143D02*
X009216Y004143D01*
X009254Y004301D02*
X009581Y004301D01*
X009612Y004270D02*
X009751Y004213D01*
X009901Y004213D01*
X010039Y004270D01*
X010145Y004376D01*
X010203Y004514D01*
X010203Y004664D01*
X010145Y004803D01*
X010039Y004909D01*
X009901Y004966D01*
X009751Y004966D01*
X009612Y004909D01*
X009506Y004803D01*
X009449Y004664D01*
X009449Y004514D01*
X009506Y004376D01*
X009612Y004270D01*
X009472Y004460D02*
X009254Y004460D01*
X009254Y004475D02*
X009241Y004521D01*
X009218Y004562D01*
X009184Y004596D01*
X009143Y004619D01*
X009097Y004632D01*
X008619Y004632D01*
X008141Y004632D01*
X008096Y004619D01*
X008055Y004596D01*
X008021Y004562D01*
X007997Y004521D01*
X007985Y004475D01*
X007985Y004353D01*
X008619Y004353D01*
X008619Y004353D01*
X008619Y004632D01*
X008619Y004353D01*
X008619Y004353D01*
X008619Y004353D01*
X009254Y004353D01*
X009254Y004475D01*
X009146Y004618D02*
X009449Y004618D01*
X009495Y004777D02*
X007446Y004777D01*
X007446Y004935D02*
X008298Y004935D01*
X008311Y004922D02*
X009372Y004922D01*
X009454Y005004D01*
X009454Y005907D01*
X009372Y005989D01*
X008311Y005989D01*
X008229Y005907D01*
X008229Y005004D01*
X008311Y004922D01*
X008229Y005094D02*
X007433Y005094D01*
X007270Y005252D02*
X008229Y005252D01*
X008229Y005411D02*
X007270Y005411D01*
X007270Y005569D02*
X008229Y005569D01*
X008229Y005728D02*
X007188Y005728D01*
X007050Y005554D02*
X007050Y004708D01*
X007446Y004618D02*
X008093Y004618D01*
X007985Y004460D02*
X007446Y004460D01*
X007412Y004301D02*
X007985Y004301D01*
X008023Y004143D02*
X006345Y004143D01*
X006490Y003984D02*
X008025Y003984D01*
X007869Y003867D02*
X007828Y003891D01*
X007782Y003903D01*
X007511Y003903D01*
X007511Y003515D01*
X007939Y003515D01*
X007939Y003747D01*
X007926Y003793D01*
X007903Y003834D01*
X007869Y003867D01*
X007908Y003826D02*
X008025Y003826D01*
X008025Y003667D02*
X007939Y003667D01*
X008025Y003509D02*
X007511Y003509D01*
X007416Y003509D02*
X006914Y003509D01*
X006911Y003667D02*
X006988Y003667D01*
X007019Y003826D02*
X006649Y003826D01*
X006656Y003507D02*
X006125Y004038D01*
X006125Y004530D01*
X006302Y004708D01*
X005906Y004777D02*
X005871Y004777D01*
X005871Y004935D02*
X005906Y004935D01*
X005919Y005094D02*
X005858Y005094D01*
X005801Y005367D02*
X005755Y005354D01*
X005593Y005354D01*
X005593Y005830D01*
X005593Y005830D01*
X005593Y006305D01*
X005755Y006305D01*
X005801Y006293D01*
X005842Y006269D01*
X005875Y006235D01*
X005899Y006194D01*
X005911Y006149D01*
X005911Y005830D01*
X005593Y005830D01*
X005593Y005830D01*
X005593Y005830D01*
X005911Y005830D01*
X005911Y005511D01*
X005899Y005465D01*
X005875Y005424D01*
X005842Y005390D01*
X005801Y005367D01*
X005862Y005411D02*
X006563Y005411D01*
X006497Y005569D02*
X005911Y005569D01*
X005911Y005728D02*
X006497Y005728D01*
X006774Y005830D02*
X007050Y005554D01*
X006830Y005252D02*
X004947Y005252D01*
X005215Y005411D02*
X005325Y005411D01*
X005593Y005411D02*
X005593Y005411D01*
X005593Y005569D02*
X005593Y005569D01*
X005593Y005728D02*
X005593Y005728D01*
X005593Y005886D02*
X005593Y005886D01*
X005593Y006045D02*
X005593Y006045D01*
X005593Y006203D02*
X005593Y006203D01*
X005620Y006362D02*
X006158Y006362D01*
X006122Y006520D02*
X005655Y006520D01*
X005618Y006679D02*
X006159Y006679D01*
X006315Y006837D02*
X005463Y006837D01*
X005134Y006837D02*
X004789Y006837D01*
X004789Y006996D02*
X006989Y006996D01*
X006989Y006837D02*
X006644Y006837D01*
X006800Y006679D02*
X007046Y006679D01*
X006836Y006520D02*
X011811Y006520D01*
X011811Y006362D02*
X007602Y006362D01*
X007663Y006203D02*
X011811Y006203D01*
X011811Y006679D02*
X007605Y006679D01*
X007663Y006837D02*
X011811Y006837D01*
X011811Y006996D02*
X007663Y006996D01*
X007049Y006362D02*
X006801Y006362D01*
X006497Y006045D02*
X005911Y006045D01*
X005894Y006203D02*
X006308Y006203D01*
X006497Y005886D02*
X005911Y005886D01*
X005003Y005830D02*
X004727Y005554D01*
X004727Y004708D01*
X004331Y004777D02*
X002819Y004777D01*
X002882Y004618D02*
X004331Y004618D01*
X004331Y004460D02*
X002882Y004460D01*
X002882Y004301D02*
X004365Y004301D01*
X004232Y003826D02*
X002882Y003826D01*
X002882Y003984D02*
X005435Y003984D01*
X005593Y003826D02*
X005183Y003826D01*
X005183Y003667D02*
X005418Y003667D01*
X005414Y003509D02*
X004756Y003509D01*
X004660Y003509D02*
X002945Y003509D01*
X002882Y003667D02*
X004232Y003667D01*
X004660Y003667D02*
X004756Y003667D01*
X004756Y003826D02*
X004660Y003826D01*
X005276Y004143D02*
X002882Y004143D01*
X002282Y004143D02*
X001777Y004143D01*
X001777Y004301D02*
X002282Y004301D01*
X002282Y004460D02*
X000360Y004460D01*
X000360Y004618D02*
X002129Y004618D01*
X001970Y004777D02*
X000360Y004777D01*
X000360Y004935D02*
X001215Y004935D01*
X001098Y005094D02*
X000360Y005094D01*
X000360Y005252D02*
X001060Y005252D01*
X001082Y005411D02*
X000360Y005411D01*
X000360Y005569D02*
X001178Y005569D01*
X001314Y005829D02*
X001386Y005805D01*
X001460Y005794D01*
X001776Y005794D01*
X001776Y006252D01*
X001813Y006252D01*
X001813Y006289D01*
X002568Y006289D01*
X002568Y006308D01*
X002556Y006382D01*
X002533Y006454D01*
X002499Y006520D01*
X004941Y006520D01*
X004977Y006362D02*
X004728Y006362D01*
X004731Y006679D02*
X004978Y006679D01*
X004172Y006679D02*
X002341Y006679D01*
X002341Y006678D02*
X002274Y006712D01*
X002203Y006736D01*
X002129Y006747D01*
X001813Y006747D01*
X001813Y006289D01*
X001776Y006289D01*
X001776Y006747D01*
X001460Y006747D01*
X001386Y006736D01*
X001314Y006712D01*
X001247Y006678D01*
X001187Y006634D01*
X001134Y006581D01*
X001089Y006520D01*
X000360Y006520D01*
X000360Y006362D02*
X001029Y006362D01*
X001032Y006382D02*
X001020Y006308D01*
X001020Y006289D01*
X001776Y006289D01*
X001776Y006252D01*
X001020Y006252D01*
X001020Y006233D01*
X001032Y006159D01*
X001055Y006088D01*
X001089Y006021D01*
X001134Y005960D01*
X001187Y005907D01*
X001247Y005863D01*
X001314Y005829D01*
X001215Y005886D02*
X000360Y005886D01*
X000360Y006045D02*
X001077Y006045D01*
X001025Y006203D02*
X000360Y006203D01*
X000360Y006679D02*
X001248Y006679D01*
X001089Y006520D02*
X001055Y006454D01*
X001032Y006382D01*
X001776Y006362D02*
X001813Y006362D01*
X001813Y006252D02*
X002568Y006252D01*
X002568Y006233D01*
X002556Y006159D01*
X002533Y006088D01*
X002499Y006021D01*
X002455Y005960D01*
X002402Y005907D01*
X002341Y005863D01*
X002274Y005829D01*
X002203Y005805D01*
X002129Y005794D01*
X001813Y005794D01*
X001813Y006252D01*
X001813Y006203D02*
X001776Y006203D01*
X001776Y006045D02*
X001813Y006045D01*
X001813Y005886D02*
X001776Y005886D01*
X002373Y005886D02*
X004115Y005886D01*
X004115Y006045D02*
X002511Y006045D01*
X002563Y006203D02*
X004115Y006203D01*
X004175Y006362D02*
X002559Y006362D01*
X002499Y006520D02*
X002455Y006581D01*
X002402Y006634D01*
X002341Y006678D01*
X001813Y006679D02*
X001776Y006679D01*
X001776Y006520D02*
X001813Y006520D01*
X000360Y006837D02*
X004115Y006837D01*
X004115Y006996D02*
X000360Y006996D01*
X000360Y005728D02*
X004590Y005728D01*
X004507Y005569D02*
X002410Y005569D01*
X002506Y005411D02*
X004507Y005411D01*
X004507Y005252D02*
X002528Y005252D01*
X002502Y005094D02*
X004344Y005094D01*
X004331Y004935D02*
X002660Y004935D01*
X002282Y003984D02*
X001777Y003984D01*
X001777Y003826D02*
X002282Y003826D01*
X002282Y003667D02*
X001777Y003667D01*
X001699Y003509D02*
X002282Y003509D01*
X002050Y003350D02*
X000360Y003350D01*
X000360Y003192D02*
X001969Y003192D01*
X001969Y003033D02*
X000360Y003033D01*
X000360Y002875D02*
X001969Y002875D01*
X002013Y002716D02*
X000360Y002716D01*
X000360Y002558D02*
X001988Y002558D01*
X001999Y002568D02*
X001965Y002535D01*
X001941Y002494D01*
X001929Y002448D01*
X001929Y002246D01*
X002996Y002246D01*
X002996Y002604D01*
X002085Y002604D01*
X002040Y002592D01*
X001999Y002568D01*
X001929Y002399D02*
X000360Y002399D01*
X000360Y002241D02*
X002996Y002241D01*
X002996Y002246D02*
X002996Y002209D01*
X001929Y002209D01*
X001929Y002007D01*
X001941Y001961D01*
X001965Y001920D01*
X001999Y001886D01*
X002040Y001863D01*
X002085Y001850D01*
X002996Y001850D01*
X002996Y002209D01*
X003033Y002209D01*
X003033Y002246D01*
X002996Y002246D01*
X003033Y002246D02*
X003033Y002604D01*
X003944Y002604D01*
X003990Y002592D01*
X004031Y002568D01*
X004064Y002535D01*
X004088Y002494D01*
X004100Y002448D01*
X004100Y002246D01*
X003033Y002246D01*
X003033Y002241D02*
X005364Y002241D01*
X005437Y002399D02*
X004100Y002399D01*
X004041Y002558D02*
X004278Y002558D01*
X004708Y002877D02*
X004826Y002759D01*
X005672Y002759D01*
X005930Y002716D02*
X006053Y002716D01*
X006053Y002700D02*
X006007Y002653D01*
X005930Y002653D01*
X005930Y002915D01*
X005928Y002917D01*
X005934Y002924D01*
X005958Y002965D01*
X005970Y003011D01*
X005970Y003133D01*
X005970Y003241D01*
X006053Y003158D01*
X006053Y002700D01*
X006053Y002875D02*
X005930Y002875D01*
X005970Y003033D02*
X006053Y003033D01*
X005970Y003133D02*
X005672Y003133D01*
X005970Y003133D01*
X005970Y003192D02*
X006020Y003192D01*
X005672Y003133D02*
X005672Y003133D01*
X005374Y003192D02*
X005154Y003192D01*
X005143Y003033D02*
X005374Y003033D01*
X005414Y003350D02*
X005183Y003350D01*
X004232Y003350D02*
X003980Y003350D01*
X003033Y002558D02*
X002996Y002558D01*
X002996Y002399D02*
X003033Y002399D01*
X003033Y002209D02*
X004100Y002209D01*
X004100Y002007D01*
X004088Y001961D01*
X004064Y001920D01*
X004031Y001886D01*
X003990Y001863D01*
X003944Y001850D01*
X003033Y001850D01*
X003033Y002209D01*
X003033Y002082D02*
X002996Y002082D01*
X002996Y001924D02*
X003033Y001924D01*
X001963Y001924D02*
X000360Y001924D01*
X000360Y002082D02*
X001929Y002082D01*
X001777Y001607D02*
X005178Y001607D01*
X005178Y001765D02*
X000360Y001765D01*
X001777Y001448D02*
X006864Y001448D01*
X006851Y001290D02*
X006836Y001290D01*
X007306Y001026D02*
X007562Y001026D01*
X007897Y001361D01*
X007897Y002286D01*
X007424Y002759D01*
X006656Y002759D01*
X006443Y002558D02*
X006433Y002558D01*
X006290Y002399D02*
X007473Y002399D01*
X007631Y002241D02*
X005816Y002241D01*
X005930Y002082D02*
X006005Y002082D01*
X006005Y001924D02*
X005930Y001924D01*
X005930Y001765D02*
X006005Y001765D01*
X006005Y001607D02*
X005930Y001607D01*
X006043Y001290D02*
X006083Y001290D01*
X006083Y001131D02*
X006049Y001131D01*
X006083Y000973D02*
X005671Y000973D01*
X005671Y000969D02*
X006049Y000969D01*
X006049Y000747D01*
X006037Y000701D01*
X006013Y000660D01*
X005979Y000627D01*
X005938Y000603D01*
X005893Y000591D01*
X005671Y000591D01*
X005671Y000969D01*
X005595Y000973D02*
X001777Y000973D01*
X001777Y001131D02*
X005217Y001131D01*
X005223Y001290D02*
X001777Y001290D01*
X004066Y001924D02*
X005178Y001924D01*
X005178Y002082D02*
X004100Y002082D01*
X005595Y001290D02*
X005671Y001290D01*
X005671Y001131D02*
X005595Y001131D01*
X005595Y000814D02*
X005671Y000814D01*
X005671Y000656D02*
X005595Y000656D01*
X006008Y000656D02*
X006140Y000656D01*
X006083Y000814D02*
X006049Y000814D01*
X006779Y000656D02*
X006908Y000656D01*
X006851Y000814D02*
X006836Y000814D01*
X008117Y001607D02*
X008229Y001607D01*
X008229Y001765D02*
X008117Y001765D01*
X008117Y001924D02*
X008229Y001924D01*
X008229Y002082D02*
X008117Y002082D01*
X008117Y002241D02*
X008229Y002241D01*
X008229Y002399D02*
X008095Y002399D01*
X007936Y002558D02*
X009592Y002558D01*
X009476Y002716D02*
X008553Y002716D01*
X008324Y002798D02*
X007463Y002798D01*
X007462Y002788D01*
X007458Y002779D01*
X007452Y002770D01*
X007444Y002764D01*
X007434Y002760D01*
X007424Y002759D01*
X007028Y003033D02*
X006433Y003033D01*
X006443Y003192D02*
X006988Y003192D01*
X006344Y003509D02*
X006268Y003509D01*
X006185Y003667D02*
X006110Y003667D01*
X006125Y004038D02*
X005692Y004038D01*
X005475Y004255D01*
X005475Y004708D01*
X005871Y004618D02*
X005905Y004618D01*
X005905Y004460D02*
X005871Y004460D01*
X005838Y004301D02*
X005905Y004301D01*
X006664Y004301D02*
X006688Y004301D01*
X007416Y003826D02*
X007511Y003826D01*
X007511Y003667D02*
X007416Y003667D01*
X007939Y003350D02*
X008025Y003350D01*
X008025Y003192D02*
X007939Y003192D01*
X007899Y003033D02*
X008025Y003033D01*
X008324Y002798D02*
X008619Y003093D01*
X009151Y002875D02*
X009449Y002875D01*
X009491Y003033D02*
X009214Y003033D01*
X010070Y004301D02*
X011811Y004301D01*
X011811Y004460D02*
X010180Y004460D01*
X010203Y004618D02*
X011811Y004618D01*
X011811Y004777D02*
X010156Y004777D01*
X010117Y004935D02*
X009976Y004935D01*
X010117Y005094D02*
X009454Y005094D01*
X009454Y005252D02*
X010117Y005252D01*
X010117Y005411D02*
X009454Y005411D01*
X009454Y005569D02*
X010117Y005569D01*
X010117Y005728D02*
X009454Y005728D01*
X009454Y005886D02*
X010117Y005886D01*
X010148Y006045D02*
X007663Y006045D01*
X007663Y005886D02*
X008229Y005886D01*
X009385Y004935D02*
X009675Y004935D01*
X008619Y004618D02*
X008619Y004618D01*
X008619Y004460D02*
X008619Y004460D01*
X005113Y004301D02*
X005090Y004301D01*
X006757Y002082D02*
X006851Y002082D01*
D24*
X004708Y002877D02*
X004570Y003015D01*
X003015Y003015D01*
X002582Y003448D01*
X002582Y004589D01*
X001900Y005271D01*
X001794Y005271D01*
D25*
X005554Y002247D02*
X005771Y002463D01*
X006086Y002463D01*
X006243Y002621D01*
X006243Y003251D01*
X005554Y002247D02*
X005554Y001834D01*
X006381Y001834D02*
X006440Y001774D01*
X007306Y001774D01*
X007306Y001026D02*
X006479Y001026D01*
X006460Y001007D01*
D26*
X006243Y003251D02*
X005987Y003507D01*
X005672Y003507D01*
M02*
