G75*
%MOIN*%
%OFA0B0*%
%FSLAX24Y24*%
%IPPOS*%
%LPD*%
%AMOC8*
5,1,8,0,0,1.08239X$1,22.5*
%
%ADD10C,0.0000*%
D10*
X000180Y000180D02*
X000180Y007267D01*
X011991Y007267D01*
X011991Y000180D01*
X000180Y000180D01*
X009629Y002857D02*
X009631Y002884D01*
X009637Y002911D01*
X009646Y002937D01*
X009659Y002961D01*
X009675Y002984D01*
X009694Y003003D01*
X009716Y003020D01*
X009740Y003034D01*
X009765Y003044D01*
X009792Y003051D01*
X009819Y003054D01*
X009847Y003053D01*
X009874Y003048D01*
X009900Y003040D01*
X009924Y003028D01*
X009947Y003012D01*
X009968Y002994D01*
X009985Y002973D01*
X010000Y002949D01*
X010011Y002924D01*
X010019Y002898D01*
X010023Y002871D01*
X010023Y002843D01*
X010019Y002816D01*
X010011Y002790D01*
X010000Y002765D01*
X009985Y002741D01*
X009968Y002720D01*
X009947Y002702D01*
X009925Y002686D01*
X009900Y002674D01*
X009874Y002666D01*
X009847Y002661D01*
X009819Y002660D01*
X009792Y002663D01*
X009765Y002670D01*
X009740Y002680D01*
X009716Y002694D01*
X009694Y002711D01*
X009675Y002730D01*
X009659Y002753D01*
X009646Y002777D01*
X009637Y002803D01*
X009631Y002830D01*
X009629Y002857D01*
X009629Y004589D02*
X009631Y004616D01*
X009637Y004643D01*
X009646Y004669D01*
X009659Y004693D01*
X009675Y004716D01*
X009694Y004735D01*
X009716Y004752D01*
X009740Y004766D01*
X009765Y004776D01*
X009792Y004783D01*
X009819Y004786D01*
X009847Y004785D01*
X009874Y004780D01*
X009900Y004772D01*
X009924Y004760D01*
X009947Y004744D01*
X009968Y004726D01*
X009985Y004705D01*
X010000Y004681D01*
X010011Y004656D01*
X010019Y004630D01*
X010023Y004603D01*
X010023Y004575D01*
X010019Y004548D01*
X010011Y004522D01*
X010000Y004497D01*
X009985Y004473D01*
X009968Y004452D01*
X009947Y004434D01*
X009925Y004418D01*
X009900Y004406D01*
X009874Y004398D01*
X009847Y004393D01*
X009819Y004392D01*
X009792Y004395D01*
X009765Y004402D01*
X009740Y004412D01*
X009716Y004426D01*
X009694Y004443D01*
X009675Y004462D01*
X009659Y004485D01*
X009646Y004509D01*
X009637Y004535D01*
X009631Y004562D01*
X009629Y004589D01*
X006302Y006519D02*
X006304Y006545D01*
X006310Y006571D01*
X006320Y006596D01*
X006333Y006619D01*
X006349Y006639D01*
X006369Y006657D01*
X006391Y006672D01*
X006414Y006684D01*
X006440Y006692D01*
X006466Y006696D01*
X006492Y006696D01*
X006518Y006692D01*
X006544Y006684D01*
X006568Y006672D01*
X006589Y006657D01*
X006609Y006639D01*
X006625Y006619D01*
X006638Y006596D01*
X006648Y006571D01*
X006654Y006545D01*
X006656Y006519D01*
X006654Y006493D01*
X006648Y006467D01*
X006638Y006442D01*
X006625Y006419D01*
X006609Y006399D01*
X006589Y006381D01*
X006567Y006366D01*
X006544Y006354D01*
X006518Y006346D01*
X006492Y006342D01*
X006466Y006342D01*
X006440Y006346D01*
X006414Y006354D01*
X006390Y006366D01*
X006369Y006381D01*
X006349Y006399D01*
X006333Y006419D01*
X006320Y006442D01*
X006310Y006467D01*
X006304Y006493D01*
X006302Y006519D01*
X005121Y006519D02*
X005123Y006545D01*
X005129Y006571D01*
X005139Y006596D01*
X005152Y006619D01*
X005168Y006639D01*
X005188Y006657D01*
X005210Y006672D01*
X005233Y006684D01*
X005259Y006692D01*
X005285Y006696D01*
X005311Y006696D01*
X005337Y006692D01*
X005363Y006684D01*
X005387Y006672D01*
X005408Y006657D01*
X005428Y006639D01*
X005444Y006619D01*
X005457Y006596D01*
X005467Y006571D01*
X005473Y006545D01*
X005475Y006519D01*
X005473Y006493D01*
X005467Y006467D01*
X005457Y006442D01*
X005444Y006419D01*
X005428Y006399D01*
X005408Y006381D01*
X005386Y006366D01*
X005363Y006354D01*
X005337Y006346D01*
X005311Y006342D01*
X005285Y006342D01*
X005259Y006346D01*
X005233Y006354D01*
X005209Y006366D01*
X005188Y006381D01*
X005168Y006399D01*
X005152Y006419D01*
X005139Y006442D01*
X005129Y006467D01*
X005123Y006493D01*
X005121Y006519D01*
M02*
