G75*
%MOIN*%
%OFA0B0*%
%FSLAX24Y24*%
%IPPOS*%
%LPD*%
%AMOC8*
5,1,8,0,0,1.08239X$1,22.5*
%
%ADD10R,0.0276X0.0237*%
%ADD11R,0.0552X0.0670*%
%ADD12R,0.0670X0.0552*%
%ADD13R,0.0631X0.0552*%
%ADD14R,0.0512X0.0512*%
%ADD15R,0.1851X0.0434*%
%ADD16R,0.1379X0.0670*%
%ADD17R,0.0985X0.0827*%
%ADD18R,0.0949X0.0237*%
%ADD19R,0.1540X0.1040*%
%ADD20C,0.0434*%
%ADD21R,0.0434X0.0355*%
%ADD22R,0.0316X0.0631*%
%ADD23C,0.0394*%
%ADD24C,0.0634*%
D10*
X005672Y002759D03*
X005672Y003133D03*
X005672Y003507D03*
X006656Y003507D03*
X006656Y002759D03*
D11*
X006302Y004708D03*
X007050Y004708D03*
X005475Y004708D03*
X004727Y004708D03*
D12*
X007306Y001774D03*
X007306Y001026D03*
D13*
X007463Y002798D03*
X007463Y003467D03*
X004708Y003546D03*
X004708Y002877D03*
D14*
X005554Y001834D03*
X006381Y001834D03*
X006460Y001007D03*
X005633Y001007D03*
D15*
X003015Y002227D03*
X003015Y003015D03*
D16*
X000967Y001282D03*
X000967Y003960D03*
D17*
X008841Y005456D03*
X008841Y001991D03*
D18*
X008619Y003093D03*
X008619Y003408D03*
X008619Y003723D03*
X008619Y004038D03*
X008619Y004353D03*
D19*
X011007Y005456D03*
X011007Y001991D03*
D20*
X009826Y002857D03*
X009826Y004589D03*
D21*
X007326Y006086D03*
X007326Y006952D03*
X004452Y006952D03*
X004452Y006086D03*
D22*
X005003Y005830D03*
X005593Y005830D03*
X006774Y005830D03*
D23*
X006479Y006519D03*
X005298Y006519D03*
D24*
X002091Y006271D02*
X001497Y006271D01*
X001497Y005271D02*
X002091Y005271D01*
M02*
