G75*
%MOIN*%
%OFA0B0*%
%FSLAX24Y24*%
%IPPOS*%
%LPD*%
%AMOC8*
5,1,8,0,0,1.08239X$1,22.5*
%
%ADD10C,0.0594*%
%ADD11C,0.0160*%
D10*
X001544Y005271D02*
X002137Y005271D01*
X002137Y006271D02*
X001544Y006271D01*
D11*
X000406Y007087D02*
X000406Y000360D01*
X011857Y000360D01*
X011857Y007087D01*
X000406Y007087D01*
X000406Y006996D02*
X011857Y006996D01*
X011857Y006837D02*
X006690Y006837D01*
X006728Y006821D02*
X006597Y006876D01*
X006455Y006876D01*
X006323Y006821D01*
X006223Y006721D01*
X006168Y006590D01*
X006168Y006448D01*
X006223Y006316D01*
X006323Y006216D01*
X006455Y006161D01*
X006597Y006161D01*
X006728Y006216D01*
X006828Y006316D01*
X006883Y006448D01*
X006883Y006590D01*
X006828Y006721D01*
X006728Y006821D01*
X006846Y006679D02*
X011857Y006679D01*
X011857Y006520D02*
X006883Y006520D01*
X006847Y006362D02*
X011857Y006362D01*
X011857Y006203D02*
X006697Y006203D01*
X006354Y006203D02*
X005516Y006203D01*
X005547Y006216D02*
X005647Y006316D01*
X005702Y006448D01*
X005702Y006590D01*
X005647Y006721D01*
X005547Y006821D01*
X005416Y006876D01*
X005273Y006876D01*
X005142Y006821D01*
X005042Y006721D01*
X004987Y006590D01*
X004987Y006448D01*
X005042Y006316D01*
X005142Y006216D01*
X005273Y006161D01*
X005416Y006161D01*
X005547Y006216D01*
X005666Y006362D02*
X006204Y006362D01*
X006168Y006520D02*
X005702Y006520D01*
X005665Y006679D02*
X006205Y006679D01*
X006361Y006837D02*
X005509Y006837D01*
X005180Y006837D02*
X000406Y006837D01*
X000406Y006679D02*
X001387Y006679D01*
X001457Y006707D02*
X001296Y006641D01*
X001173Y006518D01*
X001107Y006357D01*
X001107Y006184D01*
X001173Y006023D01*
X001296Y005900D01*
X001457Y005834D01*
X002224Y005834D01*
X002385Y005900D01*
X002508Y006023D01*
X002574Y006184D01*
X002574Y006357D01*
X002508Y006518D01*
X002385Y006641D01*
X002224Y006707D01*
X001457Y006707D01*
X001175Y006520D02*
X000406Y006520D01*
X000406Y006362D02*
X001109Y006362D01*
X001107Y006203D02*
X000406Y006203D01*
X000406Y006045D02*
X001164Y006045D01*
X001331Y005886D02*
X000406Y005886D01*
X000406Y005728D02*
X011857Y005728D01*
X011857Y005569D02*
X002457Y005569D01*
X002508Y005518D02*
X002385Y005641D01*
X002224Y005707D01*
X001457Y005707D01*
X001296Y005641D01*
X001173Y005518D01*
X001107Y005357D01*
X001107Y005184D01*
X001173Y005023D01*
X001296Y004900D01*
X001457Y004834D01*
X002224Y004834D01*
X002385Y004900D01*
X002508Y005023D01*
X002574Y005184D01*
X002574Y005357D01*
X002508Y005518D01*
X002552Y005411D02*
X011857Y005411D01*
X011857Y005252D02*
X002574Y005252D01*
X002537Y005094D02*
X011857Y005094D01*
X011857Y004935D02*
X010023Y004935D01*
X010085Y004909D02*
X009947Y004966D01*
X009797Y004966D01*
X009659Y004909D01*
X009553Y004803D01*
X009495Y004664D01*
X009495Y004514D01*
X009553Y004376D01*
X009659Y004270D01*
X009797Y004213D01*
X009947Y004213D01*
X010085Y004270D01*
X010192Y004376D01*
X010249Y004514D01*
X010249Y004664D01*
X010192Y004803D01*
X010085Y004909D01*
X010202Y004777D02*
X011857Y004777D01*
X011857Y004618D02*
X010249Y004618D01*
X010226Y004460D02*
X011857Y004460D01*
X011857Y004301D02*
X010117Y004301D01*
X009628Y004301D02*
X000406Y004301D01*
X000406Y004143D02*
X011857Y004143D01*
X011857Y003984D02*
X000406Y003984D01*
X000406Y003826D02*
X011857Y003826D01*
X011857Y003667D02*
X000406Y003667D01*
X000406Y003509D02*
X011857Y003509D01*
X011857Y003350D02*
X000406Y003350D01*
X000406Y003192D02*
X009694Y003192D01*
X009659Y003177D02*
X009553Y003071D01*
X009495Y002932D01*
X009495Y002782D01*
X009553Y002644D01*
X009659Y002538D01*
X009797Y002480D01*
X009947Y002480D01*
X010085Y002538D01*
X010192Y002644D01*
X010249Y002782D01*
X010249Y002932D01*
X010192Y003071D01*
X010085Y003177D01*
X009947Y003234D01*
X009797Y003234D01*
X009659Y003177D01*
X009537Y003033D02*
X000406Y003033D01*
X000406Y002875D02*
X009495Y002875D01*
X009523Y002716D02*
X000406Y002716D01*
X000406Y002558D02*
X009639Y002558D01*
X010105Y002558D02*
X011857Y002558D01*
X011857Y002716D02*
X010221Y002716D01*
X010249Y002875D02*
X011857Y002875D01*
X011857Y003033D02*
X010207Y003033D01*
X010050Y003192D02*
X011857Y003192D01*
X011857Y002399D02*
X000406Y002399D01*
X000406Y002241D02*
X011857Y002241D01*
X011857Y002082D02*
X000406Y002082D01*
X000406Y001924D02*
X011857Y001924D01*
X011857Y001765D02*
X000406Y001765D01*
X000406Y001607D02*
X011857Y001607D01*
X011857Y001448D02*
X000406Y001448D01*
X000406Y001290D02*
X011857Y001290D01*
X011857Y001131D02*
X000406Y001131D01*
X000406Y000973D02*
X011857Y000973D01*
X011857Y000814D02*
X000406Y000814D01*
X000406Y000656D02*
X011857Y000656D01*
X011857Y000497D02*
X000406Y000497D01*
X000406Y004460D02*
X009518Y004460D01*
X009495Y004618D02*
X000406Y004618D01*
X000406Y004777D02*
X009542Y004777D01*
X009722Y004935D02*
X002420Y004935D01*
X001261Y004935D02*
X000406Y004935D01*
X000406Y005094D02*
X001144Y005094D01*
X001107Y005252D02*
X000406Y005252D01*
X000406Y005411D02*
X001129Y005411D01*
X001224Y005569D02*
X000406Y005569D01*
X002294Y006679D02*
X005024Y006679D01*
X004987Y006520D02*
X002506Y006520D01*
X002573Y006362D02*
X005023Y006362D01*
X005173Y006203D02*
X002574Y006203D01*
X002517Y006045D02*
X011857Y006045D01*
X011857Y005886D02*
X002351Y005886D01*
M02*
