G75*
%MOIN*%
%OFA0B0*%
%FSLAX24Y24*%
%IPPOS*%
%LPD*%
%AMOC8*
5,1,8,0,0,1.08239X$1,22.5*
%
%ADD10C,0.0594*%
%ADD11C,0.0160*%
D10*
X001497Y005271D02*
X002091Y005271D01*
X002091Y006271D02*
X001497Y006271D01*
D11*
X000360Y007087D02*
X000360Y000360D01*
X011811Y000360D01*
X011811Y007087D01*
X000360Y007087D01*
X000360Y006996D02*
X011811Y006996D01*
X011811Y006837D02*
X006644Y006837D01*
X006682Y006821D02*
X006550Y006876D01*
X006408Y006876D01*
X006277Y006821D01*
X006176Y006721D01*
X006122Y006590D01*
X006122Y006448D01*
X006176Y006316D01*
X006277Y006216D01*
X006408Y006161D01*
X006550Y006161D01*
X006682Y006216D01*
X006782Y006316D01*
X006836Y006448D01*
X006836Y006590D01*
X006782Y006721D01*
X006682Y006821D01*
X006800Y006679D02*
X011811Y006679D01*
X011811Y006520D02*
X006836Y006520D01*
X006801Y006362D02*
X011811Y006362D01*
X011811Y006203D02*
X006651Y006203D01*
X006308Y006203D02*
X005470Y006203D01*
X005500Y006216D02*
X005369Y006161D01*
X005227Y006161D01*
X005096Y006216D01*
X004995Y006316D01*
X004941Y006448D01*
X004941Y006590D01*
X004995Y006721D01*
X005096Y006821D01*
X005227Y006876D01*
X005369Y006876D01*
X005500Y006821D01*
X005601Y006721D01*
X005655Y006590D01*
X005655Y006448D01*
X005601Y006316D01*
X005500Y006216D01*
X005620Y006362D02*
X006158Y006362D01*
X006122Y006520D02*
X005655Y006520D01*
X005618Y006679D02*
X006159Y006679D01*
X006315Y006837D02*
X005463Y006837D01*
X005134Y006837D02*
X000360Y006837D01*
X000360Y006679D02*
X001341Y006679D01*
X001410Y006707D02*
X001250Y006641D01*
X001127Y006518D01*
X001060Y006357D01*
X001060Y006184D01*
X001127Y006023D01*
X001250Y005900D01*
X001410Y005834D01*
X002178Y005834D01*
X002338Y005900D01*
X002461Y006023D01*
X002528Y006184D01*
X002528Y006357D01*
X002461Y006518D01*
X002338Y006641D01*
X002178Y006707D01*
X001410Y006707D01*
X001129Y006520D02*
X000360Y006520D01*
X000360Y006362D02*
X001062Y006362D01*
X001060Y006203D02*
X000360Y006203D01*
X000360Y006045D02*
X001118Y006045D01*
X001284Y005886D02*
X000360Y005886D01*
X000360Y005728D02*
X011811Y005728D01*
X011811Y005569D02*
X002410Y005569D01*
X002461Y005518D02*
X002338Y005641D01*
X002178Y005707D01*
X001410Y005707D01*
X001250Y005641D01*
X001127Y005518D01*
X001060Y005357D01*
X001060Y005184D01*
X001127Y005023D01*
X001250Y004900D01*
X001410Y004834D01*
X002178Y004834D01*
X002338Y004900D01*
X002461Y005023D01*
X002528Y005184D01*
X002528Y005357D01*
X002461Y005518D01*
X002506Y005411D02*
X011811Y005411D01*
X011811Y005252D02*
X002528Y005252D01*
X002491Y005094D02*
X011811Y005094D01*
X011811Y004935D02*
X009976Y004935D01*
X010039Y004909D02*
X009901Y004966D01*
X009751Y004966D01*
X009612Y004909D01*
X009506Y004803D01*
X009449Y004664D01*
X009449Y004514D01*
X009506Y004376D01*
X009612Y004270D01*
X009751Y004213D01*
X009901Y004213D01*
X010039Y004270D01*
X010145Y004376D01*
X010203Y004514D01*
X010203Y004664D01*
X010145Y004803D01*
X010039Y004909D01*
X010156Y004777D02*
X011811Y004777D01*
X011811Y004618D02*
X010203Y004618D01*
X010180Y004460D02*
X011811Y004460D01*
X011811Y004301D02*
X010070Y004301D01*
X009581Y004301D02*
X000360Y004301D01*
X000360Y004143D02*
X011811Y004143D01*
X011811Y003984D02*
X000360Y003984D01*
X000360Y003826D02*
X011811Y003826D01*
X011811Y003667D02*
X000360Y003667D01*
X000360Y003509D02*
X011811Y003509D01*
X011811Y003350D02*
X000360Y003350D01*
X000360Y003192D02*
X009648Y003192D01*
X009612Y003177D02*
X009506Y003071D01*
X009449Y002932D01*
X009449Y002782D01*
X009506Y002644D01*
X009612Y002538D01*
X009751Y002480D01*
X009901Y002480D01*
X010039Y002538D01*
X010145Y002644D01*
X010203Y002782D01*
X010203Y002932D01*
X010145Y003071D01*
X010039Y003177D01*
X009901Y003234D01*
X009751Y003234D01*
X009612Y003177D01*
X009491Y003033D02*
X000360Y003033D01*
X000360Y002875D02*
X009449Y002875D01*
X009476Y002716D02*
X000360Y002716D01*
X000360Y002558D02*
X009592Y002558D01*
X010059Y002558D02*
X011811Y002558D01*
X011811Y002716D02*
X010175Y002716D01*
X010203Y002875D02*
X011811Y002875D01*
X011811Y003033D02*
X010161Y003033D01*
X010003Y003192D02*
X011811Y003192D01*
X011811Y002399D02*
X000360Y002399D01*
X000360Y002241D02*
X011811Y002241D01*
X011811Y002082D02*
X000360Y002082D01*
X000360Y001924D02*
X011811Y001924D01*
X011811Y001765D02*
X000360Y001765D01*
X000360Y001607D02*
X011811Y001607D01*
X011811Y001448D02*
X000360Y001448D01*
X000360Y001290D02*
X011811Y001290D01*
X011811Y001131D02*
X000360Y001131D01*
X000360Y000973D02*
X011811Y000973D01*
X011811Y000814D02*
X000360Y000814D01*
X000360Y000656D02*
X011811Y000656D01*
X011811Y000497D02*
X000360Y000497D01*
X000360Y004460D02*
X009472Y004460D01*
X009449Y004618D02*
X000360Y004618D01*
X000360Y004777D02*
X009495Y004777D01*
X009675Y004935D02*
X002373Y004935D01*
X001215Y004935D02*
X000360Y004935D01*
X000360Y005094D02*
X001098Y005094D01*
X001060Y005252D02*
X000360Y005252D01*
X000360Y005411D02*
X001082Y005411D01*
X001178Y005569D02*
X000360Y005569D01*
X002304Y005886D02*
X011811Y005886D01*
X011811Y006045D02*
X002470Y006045D01*
X002528Y006203D02*
X005127Y006203D01*
X004977Y006362D02*
X002526Y006362D01*
X002459Y006520D02*
X004941Y006520D01*
X004978Y006679D02*
X002248Y006679D01*
M02*
