G75*
%MOIN*%
%OFA0B0*%
%FSLAX24Y24*%
%IPPOS*%
%LPD*%
%AMOC8*
5,1,8,0,0,1.08239X$1,22.5*
%
%ADD10C,0.0000*%
%ADD11C,0.0060*%
%ADD12C,0.0110*%
%ADD13C,0.0050*%
%ADD14C,0.0030*%
%ADD15R,0.0079X0.0079*%
%ADD16C,0.0080*%
D10*
X000180Y000180D02*
X000180Y007267D01*
X011991Y007267D01*
X011991Y000180D01*
X000180Y000180D01*
X009629Y002857D02*
X009631Y002884D01*
X009637Y002911D01*
X009646Y002937D01*
X009659Y002961D01*
X009675Y002984D01*
X009694Y003003D01*
X009716Y003020D01*
X009740Y003034D01*
X009765Y003044D01*
X009792Y003051D01*
X009819Y003054D01*
X009847Y003053D01*
X009874Y003048D01*
X009900Y003040D01*
X009924Y003028D01*
X009947Y003012D01*
X009968Y002994D01*
X009985Y002973D01*
X010000Y002949D01*
X010011Y002924D01*
X010019Y002898D01*
X010023Y002871D01*
X010023Y002843D01*
X010019Y002816D01*
X010011Y002790D01*
X010000Y002765D01*
X009985Y002741D01*
X009968Y002720D01*
X009947Y002702D01*
X009925Y002686D01*
X009900Y002674D01*
X009874Y002666D01*
X009847Y002661D01*
X009819Y002660D01*
X009792Y002663D01*
X009765Y002670D01*
X009740Y002680D01*
X009716Y002694D01*
X009694Y002711D01*
X009675Y002730D01*
X009659Y002753D01*
X009646Y002777D01*
X009637Y002803D01*
X009631Y002830D01*
X009629Y002857D01*
X009629Y004589D02*
X009631Y004616D01*
X009637Y004643D01*
X009646Y004669D01*
X009659Y004693D01*
X009675Y004716D01*
X009694Y004735D01*
X009716Y004752D01*
X009740Y004766D01*
X009765Y004776D01*
X009792Y004783D01*
X009819Y004786D01*
X009847Y004785D01*
X009874Y004780D01*
X009900Y004772D01*
X009924Y004760D01*
X009947Y004744D01*
X009968Y004726D01*
X009985Y004705D01*
X010000Y004681D01*
X010011Y004656D01*
X010019Y004630D01*
X010023Y004603D01*
X010023Y004575D01*
X010019Y004548D01*
X010011Y004522D01*
X010000Y004497D01*
X009985Y004473D01*
X009968Y004452D01*
X009947Y004434D01*
X009925Y004418D01*
X009900Y004406D01*
X009874Y004398D01*
X009847Y004393D01*
X009819Y004392D01*
X009792Y004395D01*
X009765Y004402D01*
X009740Y004412D01*
X009716Y004426D01*
X009694Y004443D01*
X009675Y004462D01*
X009659Y004485D01*
X009646Y004509D01*
X009637Y004535D01*
X009631Y004562D01*
X009629Y004589D01*
X006302Y006519D02*
X006304Y006545D01*
X006310Y006571D01*
X006320Y006596D01*
X006333Y006619D01*
X006349Y006639D01*
X006369Y006657D01*
X006391Y006672D01*
X006414Y006684D01*
X006440Y006692D01*
X006466Y006696D01*
X006492Y006696D01*
X006518Y006692D01*
X006544Y006684D01*
X006568Y006672D01*
X006589Y006657D01*
X006609Y006639D01*
X006625Y006619D01*
X006638Y006596D01*
X006648Y006571D01*
X006654Y006545D01*
X006656Y006519D01*
X006654Y006493D01*
X006648Y006467D01*
X006638Y006442D01*
X006625Y006419D01*
X006609Y006399D01*
X006589Y006381D01*
X006567Y006366D01*
X006544Y006354D01*
X006518Y006346D01*
X006492Y006342D01*
X006466Y006342D01*
X006440Y006346D01*
X006414Y006354D01*
X006390Y006366D01*
X006369Y006381D01*
X006349Y006399D01*
X006333Y006419D01*
X006320Y006442D01*
X006310Y006467D01*
X006304Y006493D01*
X006302Y006519D01*
X005121Y006519D02*
X005123Y006545D01*
X005129Y006571D01*
X005139Y006596D01*
X005152Y006619D01*
X005168Y006639D01*
X005188Y006657D01*
X005210Y006672D01*
X005233Y006684D01*
X005259Y006692D01*
X005285Y006696D01*
X005311Y006696D01*
X005337Y006692D01*
X005363Y006684D01*
X005387Y006672D01*
X005408Y006657D01*
X005428Y006639D01*
X005444Y006619D01*
X005457Y006596D01*
X005467Y006571D01*
X005473Y006545D01*
X005475Y006519D01*
X005473Y006493D01*
X005467Y006467D01*
X005457Y006442D01*
X005444Y006419D01*
X005428Y006399D01*
X005408Y006381D01*
X005386Y006366D01*
X005363Y006354D01*
X005337Y006346D01*
X005311Y006342D01*
X005285Y006342D01*
X005259Y006346D01*
X005233Y006354D01*
X005209Y006366D01*
X005188Y006381D01*
X005168Y006399D01*
X005152Y006419D01*
X005139Y006442D01*
X005129Y006467D01*
X005123Y006493D01*
X005121Y006519D01*
D11*
X004008Y006476D02*
X003952Y006419D01*
X004008Y006476D02*
X004008Y006589D01*
X003952Y006646D01*
X003895Y006646D01*
X003838Y006589D01*
X003838Y006476D01*
X003781Y006419D01*
X003725Y006419D01*
X003668Y006476D01*
X003668Y006589D01*
X003725Y006646D01*
X003668Y006787D02*
X003668Y007014D01*
X003668Y006901D02*
X004008Y006901D01*
X004008Y006278D02*
X003781Y006278D01*
X003668Y006164D01*
X003781Y006051D01*
X004008Y006051D01*
X003838Y006051D02*
X003838Y006278D01*
X003668Y005909D02*
X003668Y005682D01*
X004008Y005682D01*
X003838Y005682D02*
X003838Y005796D01*
X003013Y005739D02*
X002672Y005739D01*
X002672Y005852D02*
X002672Y005625D01*
X002786Y005484D02*
X003013Y005484D01*
X002843Y005484D02*
X002843Y005257D01*
X002786Y005257D02*
X002672Y005370D01*
X002786Y005484D01*
X002786Y005257D02*
X003013Y005257D01*
X002956Y005116D02*
X002899Y005116D01*
X002843Y005059D01*
X002843Y004889D01*
X003013Y004889D02*
X003013Y005059D01*
X002956Y005116D01*
X002843Y005059D02*
X002786Y005116D01*
X002729Y005116D01*
X002672Y005059D01*
X002672Y004889D01*
X003013Y004889D01*
X002672Y005994D02*
X002672Y006220D01*
X002672Y006107D02*
X003013Y006107D01*
X003013Y006362D02*
X002786Y006589D01*
X002729Y006589D01*
X002672Y006532D01*
X002672Y006419D01*
X002729Y006362D01*
X003013Y006362D02*
X003013Y006589D01*
X007762Y006550D02*
X007762Y006436D01*
X007819Y006380D01*
X008046Y006380D01*
X008103Y006436D01*
X008103Y006550D01*
X008046Y006607D01*
X007819Y006607D01*
X007762Y006550D01*
X007762Y006748D02*
X008103Y006748D01*
X007989Y006861D01*
X008103Y006975D01*
X007762Y006975D01*
X008103Y006238D02*
X008103Y006011D01*
X007762Y006011D01*
X007819Y005870D02*
X007762Y005813D01*
X007762Y005700D01*
X007819Y005643D01*
X007876Y005643D01*
X007933Y005700D01*
X007933Y005813D01*
X007989Y005870D01*
X008046Y005870D01*
X008103Y005813D01*
X008103Y005700D01*
X008046Y005643D01*
X010408Y006284D02*
X010465Y006227D01*
X010578Y006227D01*
X010635Y006284D01*
X010635Y006567D01*
X010777Y006511D02*
X010777Y006454D01*
X010833Y006397D01*
X010947Y006397D01*
X011003Y006340D01*
X011003Y006284D01*
X010947Y006227D01*
X010833Y006227D01*
X010777Y006284D01*
X010777Y006511D02*
X010833Y006567D01*
X010947Y006567D01*
X011003Y006511D01*
X011145Y006567D02*
X011315Y006567D01*
X011372Y006511D01*
X011372Y006454D01*
X011315Y006397D01*
X011145Y006397D01*
X011315Y006397D02*
X011372Y006340D01*
X011372Y006284D01*
X011315Y006227D01*
X011145Y006227D01*
X011145Y006567D01*
X010408Y006567D02*
X010408Y006284D01*
X005057Y001916D02*
X005000Y001973D01*
X004887Y001973D01*
X004830Y001916D01*
X004830Y001690D01*
X004887Y001633D01*
X005000Y001633D01*
X005057Y001690D01*
X005057Y001803D01*
X004943Y001803D01*
X004688Y001803D02*
X004462Y001803D01*
X004320Y001916D02*
X004263Y001973D01*
X004150Y001973D01*
X004093Y001916D01*
X004093Y001690D01*
X004150Y001633D01*
X004263Y001633D01*
X004320Y001690D01*
X004462Y001633D02*
X004462Y001973D01*
X004688Y001973D02*
X004688Y001633D01*
X004632Y001146D02*
X004518Y001146D01*
X004462Y001090D01*
X004462Y000863D01*
X004518Y000806D01*
X004632Y000806D01*
X004688Y000863D01*
X004688Y001090D01*
X004632Y001146D01*
X004830Y001146D02*
X004830Y000806D01*
X004943Y000919D01*
X005057Y000806D01*
X005057Y001146D01*
X004320Y001090D02*
X004320Y000976D01*
X004263Y000919D01*
X004093Y000919D01*
X004093Y000806D02*
X004093Y001146D01*
X004263Y001146D01*
X004320Y001090D01*
X002098Y000473D02*
X001871Y000473D01*
X001985Y000473D02*
X001985Y000813D01*
X001871Y000700D01*
X001730Y000813D02*
X001503Y000813D01*
X001616Y000813D02*
X001616Y000473D01*
X001248Y000473D02*
X001248Y000813D01*
X001135Y000813D02*
X001361Y000813D01*
X000993Y000700D02*
X000993Y000473D01*
X000993Y000643D02*
X000766Y000643D01*
X000766Y000700D02*
X000880Y000813D01*
X000993Y000700D01*
X000766Y000700D02*
X000766Y000473D01*
X000625Y000530D02*
X000568Y000473D01*
X000398Y000473D01*
X000398Y000813D01*
X000568Y000813D01*
X000625Y000757D01*
X000625Y000700D01*
X000568Y000643D01*
X000398Y000643D01*
X000568Y000643D02*
X000625Y000587D01*
X000625Y000530D01*
X008635Y000897D02*
X008782Y000897D01*
X008709Y000971D02*
X008709Y000677D01*
X008782Y000604D01*
X008942Y000604D02*
X009089Y000604D01*
X009016Y000604D02*
X009016Y000897D01*
X008942Y000897D01*
X009016Y001044D02*
X009016Y001117D01*
X009249Y000897D02*
X009469Y000897D01*
X009543Y000824D01*
X009543Y000604D01*
X009709Y000677D02*
X009783Y000604D01*
X010003Y000604D01*
X010003Y000530D02*
X009930Y000457D01*
X009856Y000457D01*
X010003Y000530D02*
X010003Y000897D01*
X010170Y001044D02*
X010170Y000604D01*
X010463Y000604D01*
X010630Y000604D02*
X010777Y000604D01*
X010704Y000604D02*
X010704Y000897D01*
X010630Y000897D01*
X010704Y001044D02*
X010704Y001117D01*
X010937Y001044D02*
X011157Y001044D01*
X011231Y000971D01*
X011231Y000824D01*
X011157Y000750D01*
X010937Y000750D01*
X010937Y000604D02*
X010937Y001044D01*
X011398Y000824D02*
X011398Y000677D01*
X011471Y000604D01*
X011618Y000604D01*
X011691Y000677D01*
X011691Y000824D01*
X011618Y000897D01*
X011471Y000897D01*
X011398Y000824D01*
X009709Y000897D02*
X009709Y000677D01*
X009249Y000604D02*
X009249Y000897D01*
D12*
X003936Y001545D02*
X003503Y001545D01*
X003798Y003651D02*
X003798Y004084D01*
X003581Y003867D02*
X004015Y003867D01*
X000944Y005245D02*
X000511Y005245D01*
X000727Y005462D02*
X000727Y005028D01*
X000511Y006269D02*
X000944Y006269D01*
D13*
X005869Y003605D02*
X005869Y002660D01*
X006460Y002660D01*
X006460Y003605D01*
X005869Y003605D01*
D14*
X005846Y003754D02*
X005846Y004044D01*
X005894Y004044D02*
X005797Y004044D01*
X005994Y003996D02*
X005994Y003802D01*
X006042Y003754D01*
X006139Y003754D01*
X006187Y003802D01*
X006288Y003754D02*
X006482Y003754D01*
X006385Y003754D02*
X006385Y004044D01*
X006288Y003948D01*
X006187Y003996D02*
X006139Y004044D01*
X006042Y004044D01*
X005994Y003996D01*
X005894Y003754D02*
X005797Y003754D01*
X007207Y003950D02*
X007256Y003902D01*
X007352Y003902D01*
X007401Y003950D01*
X007502Y003902D02*
X007695Y003902D01*
X007599Y003902D02*
X007599Y004192D01*
X007502Y004096D01*
X007401Y004144D02*
X007352Y004192D01*
X007256Y004192D01*
X007207Y004144D01*
X007207Y003950D01*
X007524Y004498D02*
X007524Y004643D01*
X007573Y004692D01*
X007669Y004692D01*
X007718Y004643D01*
X007718Y004498D01*
X007815Y004498D02*
X007524Y004498D01*
X007718Y004595D02*
X007815Y004692D01*
X007815Y004793D02*
X007621Y004986D01*
X007573Y004986D01*
X007524Y004938D01*
X007524Y004841D01*
X007573Y004793D01*
X007815Y004793D02*
X007815Y004986D01*
X006464Y005243D02*
X006416Y005195D01*
X006464Y005243D02*
X006464Y005340D01*
X006416Y005388D01*
X006367Y005388D01*
X006319Y005340D01*
X006319Y005243D01*
X006271Y005195D01*
X006222Y005195D01*
X006174Y005243D01*
X006174Y005340D01*
X006222Y005388D01*
X006174Y005490D02*
X006464Y005490D01*
X006367Y005586D01*
X006464Y005683D01*
X006174Y005683D01*
X006271Y005784D02*
X006174Y005881D01*
X006464Y005881D01*
X006464Y005784D02*
X006464Y005978D01*
X004260Y004844D02*
X004260Y004553D01*
X004356Y004553D02*
X004163Y004553D01*
X004062Y004553D02*
X003965Y004650D01*
X004013Y004650D02*
X003868Y004650D01*
X003868Y004553D02*
X003868Y004844D01*
X004013Y004844D01*
X004062Y004795D01*
X004062Y004698D01*
X004013Y004650D01*
X004163Y004747D02*
X004260Y004844D01*
X004500Y002539D02*
X004451Y002490D01*
X004451Y002297D01*
X004500Y002249D01*
X004596Y002249D01*
X004645Y002297D01*
X004746Y002249D02*
X004939Y002442D01*
X004939Y002490D01*
X004891Y002539D01*
X004794Y002539D01*
X004746Y002490D01*
X004645Y002490D02*
X004596Y002539D01*
X004500Y002539D01*
X004746Y002249D02*
X004939Y002249D01*
X007761Y001631D02*
X007761Y001534D01*
X007809Y001486D01*
X007809Y001385D02*
X007906Y001385D01*
X007954Y001336D01*
X007954Y001191D01*
X008051Y001191D02*
X007761Y001191D01*
X007761Y001336D01*
X007809Y001385D01*
X007954Y001288D02*
X008051Y001385D01*
X008002Y001486D02*
X008051Y001534D01*
X008051Y001631D01*
X008002Y001679D01*
X007954Y001679D01*
X007906Y001631D01*
X007906Y001582D01*
X007906Y001631D02*
X007857Y001679D01*
X007809Y001679D01*
X007761Y001631D01*
D15*
X006007Y001007D03*
X005928Y001834D03*
D16*
X008408Y002463D02*
X008408Y002897D01*
X009393Y002188D02*
X010456Y002188D01*
X011600Y003315D02*
X011600Y003315D01*
X010456Y005259D02*
X009393Y005259D01*
X008408Y004983D02*
X008408Y004550D01*
X006558Y006007D02*
X005849Y006007D01*
X004550Y006322D02*
X004550Y006715D01*
X004747Y007030D02*
X007030Y007030D01*
X007227Y006715D02*
X007227Y006322D01*
X003330Y004196D02*
X003330Y003861D01*
X002345Y003861D01*
X002345Y003310D01*
X001755Y004196D02*
X003330Y004196D01*
X000377Y003507D02*
X000377Y001735D01*
X001755Y001046D02*
X003330Y001046D01*
X003330Y001381D01*
X002345Y001381D01*
X002345Y001932D01*
M02*
